<svg xmlns="http://www.w3.org/2000/svg" xmlns:xlink="http://www.w3.org/1999/xlink" width="5963" zoomAndPan="magnify" viewBox="0 0 4472.25 1055.250008" height="1407" preserveAspectRatio="xMidYMid meet" version="1.0"><defs><g/><clipPath id="fdcff0203b"><rect x="0" width="3694" y="0" height="641"/></clipPath><clipPath id="4d1abc8f1b"><path d="M 783.320312 389.402344 L 1041 389.402344 L 1041 647 L 783.320312 647 Z M 783.320312 389.402344 " clip-rule="nonzero"/></clipPath></defs><g transform="matrix(1, 0, 0, 1, 403, 185)"><g clip-path="url(#fdcff0203b)"><g fill="#000000" fill-opacity="1"><g transform="translate(2.888392, 501.827979)"><g><path d="M 142.109375 11.46875 C 131.910156 10.625 120.4375 8.5 107.6875 5.09375 C 94.945312 1.695312 84.007812 -1.378906 74.875 -4.140625 C 65.738281 -6.898438 57.132812 -9.234375 49.0625 -11.140625 C 40.988281 -13.054688 34.722656 -13.164062 30.265625 -11.46875 C 25.804688 -9.769531 23.578125 -5.945312 23.578125 0 L 19.109375 0 L 19.109375 -116.609375 L 23.578125 -116.609375 C 23.578125 -93.242188 33.132812 -70.09375 52.25 -47.15625 C 71.363281 -24.21875 96.003906 -8.925781 126.171875 -1.28125 C 137.640625 1.695312 149.109375 3.1875 160.578125 3.1875 C 161.859375 3.1875 162.921875 3.1875 163.765625 3.1875 C 190.109375 3.1875 210.925781 -4.671875 226.21875 -20.390625 C 241.507812 -36.109375 249.15625 -54.800781 249.15625 -76.46875 C 249.15625 -89.632812 244.90625 -103.648438 236.40625 -118.515625 C 227.914062 -133.390625 216.550781 -147.410156 202.3125 -160.578125 C 188.082031 -173.753906 174.273438 -185.4375 160.890625 -195.625 C 147.515625 -205.820312 133.601562 -215.382812 119.15625 -224.3125 C 83.894531 -245.125 58.40625 -265.722656 42.6875 -286.109375 C 26.96875 -306.503906 19.109375 -330.722656 19.109375 -358.765625 C 19.109375 -389.347656 28.878906 -412.921875 48.421875 -429.484375 C 67.972656 -446.054688 91.976562 -454.34375 120.4375 -454.34375 L 121.078125 -454.34375 C 122.347656 -454.34375 123.617188 -454.34375 124.890625 -454.34375 C 135.515625 -453.914062 147.625 -451.894531 161.21875 -448.28125 C 174.8125 -444.675781 186.707031 -441.066406 196.90625 -437.453125 C 207.101562 -433.847656 216.765625 -430.875 225.890625 -428.53125 C 235.023438 -426.195312 242.035156 -425.984375 246.921875 -427.890625 C 251.804688 -429.804688 254.25 -434.378906 254.25 -441.609375 L 258.71875 -441.609375 L 258.71875 -324.984375 L 254.25 -324.984375 C 254.25 -339.859375 249.148438 -355.472656 238.953125 -371.828125 C 228.765625 -388.179688 215.28125 -402.726562 198.5 -415.46875 C 181.71875 -428.21875 164.40625 -436.929688 146.5625 -441.609375 C 140.1875 -443.304688 134.023438 -444.367188 128.078125 -444.796875 L 121.078125 -444.796875 C 107.898438 -444.796875 96.109375 -442.878906 85.703125 -439.046875 C 75.296875 -435.222656 67.117188 -430.019531 61.171875 -423.4375 C 55.222656 -416.851562 50.757812 -409.738281 47.78125 -402.09375 C 44.8125 -394.445312 43.328125 -386.585938 43.328125 -378.515625 C 43.328125 -370.441406 44.175781 -362.796875 45.875 -355.578125 C 47.582031 -348.359375 49.707031 -341.984375 52.25 -336.453125 C 54.800781 -330.929688 58.519531 -325.195312 63.40625 -319.25 C 68.289062 -313.300781 72.644531 -308.304688 76.46875 -304.265625 C 80.289062 -300.234375 85.597656 -295.671875 92.390625 -290.578125 C 99.191406 -285.484375 104.820312 -281.445312 109.28125 -278.46875 C 113.75 -275.5 120.015625 -271.359375 128.078125 -266.046875 C 136.148438 -260.734375 142.097656 -256.800781 145.921875 -254.25 C 150.597656 -250.851562 158.773438 -245.222656 170.453125 -237.359375 C 182.140625 -229.503906 190.53125 -223.769531 195.625 -220.15625 C 200.726562 -216.550781 208.054688 -211.132812 217.609375 -203.90625 C 227.171875 -196.6875 234.285156 -190.738281 238.953125 -186.0625 C 243.628906 -181.394531 249.257812 -175.238281 255.84375 -167.59375 C 262.4375 -159.945312 267.21875 -152.722656 270.1875 -145.921875 C 273.15625 -139.128906 275.703125 -131.269531 277.828125 -122.34375 C 279.953125 -113.425781 281.015625 -104.296875 281.015625 -94.953125 C 281.015625 -63.515625 270.078125 -37.703125 248.203125 -17.515625 C 226.328125 2.660156 196.054688 12.75 157.390625 12.75 C 156.117188 12.75 154.632812 12.75 152.9375 12.75 C 152.507812 12.75 152.082031 12.75 151.65625 12.75 C 150.382812 12.320312 149.113281 12.109375 147.84375 12.109375 C 147.84375 12.109375 147.414062 12.109375 146.5625 12.109375 C 145.71875 12.109375 144.867188 12.109375 144.015625 12.109375 C 142.742188 11.679688 142.109375 11.46875 142.109375 11.46875 Z M 142.109375 11.46875 "/></g></g></g><g fill="#000000" fill-opacity="1"><g transform="translate(326.596165, 501.827979)"><g><path d="M 178.421875 -365.765625 C 226.859375 -365.765625 266.050781 -347.601562 296 -311.28125 C 325.945312 -274.96875 340.921875 -230.046875 340.921875 -176.515625 C 340.921875 -122.984375 325.945312 -78.054688 296 -41.734375 C 266.050781 -5.410156 226.859375 12.75 178.421875 12.75 C 129.992188 12.75 90.804688 -5.410156 60.859375 -41.734375 C 30.910156 -78.054688 15.9375 -122.984375 15.9375 -176.515625 C 15.9375 -202.429688 19.863281 -226.960938 27.71875 -250.109375 C 35.582031 -273.265625 46.414062 -293.335938 60.21875 -310.328125 C 74.019531 -327.328125 91.117188 -340.816406 111.515625 -350.796875 C 131.910156 -360.773438 154.210938 -365.765625 178.421875 -365.765625 Z M 90.171875 -46.828125 C 115.023438 -13.484375 144.441406 3.1875 178.421875 3.1875 C 212.410156 3.1875 241.828125 -13.484375 266.671875 -46.828125 C 291.523438 -80.179688 303.953125 -123.410156 303.953125 -176.515625 C 303.953125 -226.640625 291.738281 -269.117188 267.3125 -303.953125 C 242.882812 -338.796875 213.253906 -356.21875 178.421875 -356.21875 C 143.585938 -356.21875 113.957031 -338.796875 89.53125 -303.953125 C 65.101562 -269.117188 52.890625 -226.640625 52.890625 -176.515625 C 52.890625 -123.410156 65.316406 -80.179688 90.171875 -46.828125 Z M 90.171875 -46.828125 "/></g></g></g><g fill="#000000" fill-opacity="1"><g transform="translate(710.839542, 501.827979)"><g><path d="M 160.578125 -454.34375 C 177.578125 -454.34375 205.191406 -448.609375 243.421875 -437.140625 L 243.421875 -382.34375 C 235.347656 -398.488281 224.085938 -412.929688 209.640625 -425.671875 C 195.203125 -438.421875 178.847656 -444.796875 160.578125 -444.796875 C 135.941406 -444.796875 117.144531 -437.570312 104.1875 -423.125 C 91.226562 -408.675781 83.898438 -385.3125 82.203125 -353.03125 L 160.578125 -353.03125 L 160.578125 -343.46875 L 82.203125 -343.46875 C 82.203125 -341.769531 82.203125 -340.285156 82.203125 -339.015625 L 82.203125 -103.875 C 82.203125 -87.300781 82.519531 -74.019531 83.15625 -64.03125 C 83.789062 -54.050781 85.273438 -43.960938 87.609375 -33.765625 C 89.953125 -23.578125 93.78125 -16.144531 99.09375 -11.46875 C 104.40625 -6.789062 111.09375 -4.453125 119.15625 -4.453125 L 119.15625 0 L 8.28125 0 L 8.28125 -4.453125 C 16.351562 -4.453125 23.046875 -6.789062 28.359375 -11.46875 C 33.671875 -16.144531 37.492188 -23.578125 39.828125 -33.765625 C 42.160156 -43.960938 43.644531 -54.050781 44.28125 -64.03125 C 44.925781 -74.019531 45.25 -87.300781 45.25 -103.875 L 45.25 -339.015625 C 45.25 -340.710938 45.25 -342.195312 45.25 -343.46875 L 15.9375 -343.46875 L 15.9375 -353.03125 L 45.875 -353.03125 C 47.582031 -390.414062 57.992188 -416.644531 77.109375 -431.71875 C 96.222656 -446.800781 124.046875 -454.34375 160.578125 -454.34375 Z M 160.578125 -454.34375 "/></g></g></g><g fill="#000000" fill-opacity="1"><g transform="translate(897.545646, 501.827979)"><g><path d="M 82.84375 -115.984375 C 82.84375 -99.835938 83.160156 -86.769531 83.796875 -76.78125 C 84.429688 -66.800781 85.914062 -56.710938 88.25 -46.515625 C 90.59375 -36.316406 94.414062 -28.878906 99.71875 -24.203125 C 105.03125 -19.535156 111.722656 -17.203125 119.796875 -17.203125 L 119.796875 -12.75 L 8.921875 -12.75 L 8.921875 -17.203125 C 16.992188 -17.203125 23.679688 -19.535156 28.984375 -24.203125 C 34.296875 -28.878906 38.117188 -36.316406 40.453125 -46.515625 C 42.796875 -56.710938 44.285156 -66.800781 44.921875 -76.78125 C 45.554688 -86.769531 45.875 -99.835938 45.875 -115.984375 L 45.875 -248.515625 C 45.875 -264.660156 45.554688 -277.722656 44.921875 -287.703125 C 44.285156 -297.691406 42.796875 -307.675781 40.453125 -317.65625 C 38.117188 -327.644531 34.296875 -334.972656 28.984375 -339.640625 C 23.679688 -344.316406 16.992188 -346.65625 8.921875 -346.65625 L 8.921875 -351.109375 L 82.84375 -365.765625 Z M 116.609375 -462.625 L 21.671875 -407.828125 L 11.46875 -419.296875 L 83.484375 -500.234375 Z M 116.609375 -462.625 "/></g></g></g><g fill="#000000" fill-opacity="1"><g transform="translate(1051.753687, 501.827979)"><g><path d="M 154.203125 -365.765625 C 165.253906 -365.765625 175.984375 -364.382812 186.390625 -361.625 C 196.796875 -358.863281 206.988281 -354.40625 216.96875 -348.25 C 226.957031 -342.09375 235.03125 -332.851562 241.1875 -320.53125 C 247.351562 -308.207031 250.4375 -293.765625 250.4375 -277.203125 L 250.4375 0 C 241.9375 -5.09375 229.613281 -12.953125 213.46875 -23.578125 C 188.40625 0.640625 160.582031 12.75 130 12.75 C 55.65625 12.75 18.484375 -26.332031 18.484375 -104.5 C 18.484375 -191.59375 83.269531 -253.191406 212.84375 -289.296875 C 210.289062 -333.910156 190.742188 -356.21875 154.203125 -356.21875 C 129.992188 -356.21875 106.207031 -347.1875 82.84375 -329.125 C 59.476562 -311.070312 43.117188 -291.210938 33.765625 -269.546875 L 33.765625 -324.359375 C 77.523438 -351.960938 117.671875 -365.765625 154.203125 -365.765625 Z M 213.46875 -33.765625 L 213.46875 -277.203125 C 213.46875 -278.472656 213.46875 -279.957031 213.46875 -281.65625 C 193.082031 -275.28125 173.96875 -266.992188 156.125 -256.796875 C 138.28125 -246.609375 121.601562 -234.289062 106.09375 -219.84375 C 90.59375 -205.40625 78.273438 -188.304688 69.140625 -168.546875 C 60.003906 -148.796875 55.4375 -127.445312 55.4375 -104.5 C 55.4375 -68.820312 62.445312 -41.953125 76.46875 -23.890625 C 90.488281 -5.835938 108.332031 3.1875 130 3.1875 C 162.707031 3.1875 190.53125 -9.128906 213.46875 -33.765625 Z M 213.46875 -33.765625 "/></g></g></g><g fill="#000000" fill-opacity="1"><g transform="translate(1358.256531, 501.827979)"><g/></g></g><g fill="#000000" fill-opacity="1"><g transform="translate(1574.911871, 501.827979)"><g><path d="M 120.4375 0 C 117.882812 0 105.457031 0 83.15625 0 C 60.851562 0 48.640625 0 46.515625 0 L 9.5625 0 L 9.5625 -4.453125 C 17.632812 -4.453125 24.320312 -6.789062 29.625 -11.46875 C 34.9375 -16.144531 38.757812 -23.578125 41.09375 -33.765625 C 43.4375 -43.960938 44.925781 -54.050781 45.5625 -64.03125 C 46.195312 -74.019531 46.515625 -87.300781 46.515625 -103.875 L 46.515625 -338.375 C 46.515625 -354.519531 46.195312 -367.582031 45.5625 -377.5625 C 44.925781 -387.539062 43.4375 -397.628906 41.09375 -407.828125 C 38.757812 -418.023438 34.9375 -425.457031 29.625 -430.125 C 24.320312 -434.800781 17.632812 -437.140625 9.5625 -437.140625 L 9.5625 -441.609375 L 46.515625 -441.609375 C 55.859375 -441.609375 76.25 -443.726562 107.6875 -447.96875 C 139.125 -452.21875 165.039062 -454.34375 185.4375 -454.34375 C 218.570312 -454.34375 246.710938 -443.828125 269.859375 -422.796875 C 293.015625 -401.773438 304.59375 -371.507812 304.59375 -332 C 304.59375 -289.519531 292.164062 -258.507812 267.3125 -238.96875 C 242.46875 -219.425781 208.59375 -209.65625 165.6875 -209.65625 C 155.914062 -209.65625 128.515625 -210.71875 83.484375 -212.84375 L 83.484375 -103.875 C 83.484375 -87.300781 83.800781 -74.019531 84.4375 -64.03125 C 85.070312 -54.050781 86.554688 -43.960938 88.890625 -33.765625 C 91.234375 -23.578125 95.054688 -16.144531 100.359375 -11.46875 C 105.671875 -6.789062 112.363281 -4.453125 120.4375 -4.453125 Z M 83.484375 -435.875 L 83.484375 -222.390625 C 130.210938 -220.265625 157.613281 -219.203125 165.6875 -219.203125 C 195 -219.203125 219.425781 -228.335938 238.96875 -246.609375 C 258.507812 -264.878906 268.28125 -293.34375 268.28125 -332 C 268.28125 -352.8125 265.515625 -370.96875 259.984375 -386.46875 C 254.460938 -401.976562 247.238281 -413.769531 238.3125 -421.84375 C 229.394531 -429.914062 220.476562 -435.757812 211.5625 -439.375 C 202.644531 -442.988281 193.9375 -444.796875 185.4375 -444.796875 C 167.164062 -444.796875 133.179688 -441.820312 83.484375 -435.875 Z M 83.484375 -435.875 "/></g></g></g><g fill="#000000" fill-opacity="1"><g transform="translate(1914.550109, 501.827979)"><g><path d="M 154.203125 -365.765625 C 165.253906 -365.765625 175.984375 -364.382812 186.390625 -361.625 C 196.796875 -358.863281 206.988281 -354.40625 216.96875 -348.25 C 226.957031 -342.09375 235.03125 -332.851562 241.1875 -320.53125 C 247.351562 -308.207031 250.4375 -293.765625 250.4375 -277.203125 L 250.4375 0 C 241.9375 -5.09375 229.613281 -12.953125 213.46875 -23.578125 C 188.40625 0.640625 160.582031 12.75 130 12.75 C 55.65625 12.75 18.484375 -26.332031 18.484375 -104.5 C 18.484375 -191.59375 83.269531 -253.191406 212.84375 -289.296875 C 210.289062 -333.910156 190.742188 -356.21875 154.203125 -356.21875 C 129.992188 -356.21875 106.207031 -347.1875 82.84375 -329.125 C 59.476562 -311.070312 43.117188 -291.210938 33.765625 -269.546875 L 33.765625 -324.359375 C 77.523438 -351.960938 117.671875 -365.765625 154.203125 -365.765625 Z M 213.46875 -33.765625 L 213.46875 -277.203125 C 213.46875 -278.472656 213.46875 -279.957031 213.46875 -281.65625 C 193.082031 -275.28125 173.96875 -266.992188 156.125 -256.796875 C 138.28125 -246.609375 121.601562 -234.289062 106.09375 -219.84375 C 90.59375 -205.40625 78.273438 -188.304688 69.140625 -168.546875 C 60.003906 -148.796875 55.4375 -127.445312 55.4375 -104.5 C 55.4375 -68.820312 62.445312 -41.953125 76.46875 -23.890625 C 90.488281 -5.835938 108.332031 3.1875 130 3.1875 C 162.707031 3.1875 190.53125 -9.128906 213.46875 -33.765625 Z M 213.46875 -33.765625 "/></g></g></g><g fill="#000000" fill-opacity="1"><g transform="translate(2221.052953, 501.827979)"><g><path d="M 161.859375 -365.765625 C 172.054688 -365.765625 184.054688 -364.273438 197.859375 -361.296875 C 211.671875 -358.328125 222.820312 -355.570312 231.3125 -353.03125 L 244.0625 -348.5625 C 244.0625 -348.5625 230.675781 -329.972656 203.90625 -292.796875 C 177.144531 -255.628906 163.765625 -236.832031 163.765625 -236.40625 L 159.3125 -236.40625 C 164.832031 -245.757812 170.25 -256.382812 175.5625 -268.28125 C 180.875 -280.175781 185.441406 -293.128906 189.265625 -307.140625 C 193.085938 -321.160156 192.554688 -332.84375 187.671875 -342.1875 C 182.785156 -351.539062 173.117188 -356.21875 158.671875 -356.21875 C 134.035156 -355.789062 115.554688 -347.820312 103.234375 -332.3125 C 90.910156 -316.8125 84.328125 -292.28125 83.484375 -258.71875 L 83.484375 -103.875 C 83.484375 -87.300781 83.800781 -74.019531 84.4375 -64.03125 C 85.070312 -54.050781 86.554688 -43.960938 88.890625 -33.765625 C 91.234375 -23.578125 95.054688 -16.144531 100.359375 -11.46875 C 105.671875 -6.789062 112.363281 -4.453125 120.4375 -4.453125 L 120.4375 0 L 9.5625 0 L 9.5625 -4.453125 C 17.632812 -4.453125 24.320312 -6.789062 29.625 -11.46875 C 34.9375 -16.144531 38.757812 -23.578125 41.09375 -33.765625 C 43.4375 -43.960938 44.925781 -54.050781 45.5625 -64.03125 C 46.195312 -74.019531 46.515625 -87.300781 46.515625 -103.875 L 46.515625 -235.78125 C 46.515625 -251.914062 46.195312 -264.972656 45.5625 -274.953125 C 44.925781 -284.941406 43.4375 -294.925781 41.09375 -304.90625 C 38.757812 -314.894531 34.9375 -322.222656 29.625 -326.890625 C 24.320312 -331.566406 17.632812 -333.90625 9.5625 -333.90625 L 9.5625 -338.375 L 83.484375 -353.03125 L 83.484375 -317.34375 C 96.648438 -349.625 122.773438 -365.765625 161.859375 -365.765625 Z M 161.859375 -365.765625 "/></g></g></g><g fill="#000000" fill-opacity="1"><g transform="translate(2491.234531, 501.827979)"><g><path d="M 251.703125 -59.90625 L 258.71875 -53.53125 C 241.726562 -31.007812 223.351562 -14.332031 203.59375 -3.5 C 183.84375 7.332031 164.195312 12.75 144.65625 12.75 C 105.988281 12.75 75.1875 -2.222656 52.25 -32.171875 C 29.3125 -62.128906 17.84375 -103.019531 17.84375 -154.84375 C 17.84375 -194.351562 24 -230.25 36.3125 -262.53125 C 48.632812 -294.820312 65.628906 -320.097656 87.296875 -338.359375 C 108.960938 -356.628906 132.96875 -365.765625 159.3125 -365.765625 C 181.820312 -365.765625 201.46875 -359.070312 218.25 -345.6875 C 235.03125 -332.3125 243.421875 -315.109375 243.421875 -294.078125 C 243.421875 -273.054688 233.863281 -253.515625 214.75 -235.453125 C 195.632812 -217.398438 171.945312 -203.171875 143.6875 -192.765625 C 115.4375 -182.359375 86.019531 -175.664062 55.4375 -172.6875 C 55.007812 -166.738281 54.796875 -160.789062 54.796875 -154.84375 C 54.796875 -104.289062 62.441406 -65.3125 77.734375 -37.90625 C 93.035156 -10.507812 115.34375 3.1875 144.65625 3.1875 C 182.039062 3.1875 217.722656 -17.84375 251.703125 -59.90625 Z M 159.3125 -356.21875 C 133.394531 -356.21875 110.664062 -339.007812 91.125 -304.59375 C 71.582031 -270.1875 59.898438 -229.617188 56.078125 -182.890625 C 72.640625 -185.015625 89.097656 -188.726562 105.453125 -194.03125 C 121.816406 -199.34375 137.859375 -206.351562 153.578125 -215.0625 C 169.296875 -223.769531 182.039062 -234.921875 191.8125 -248.515625 C 201.582031 -262.109375 206.46875 -277.191406 206.46875 -293.765625 C 206.46875 -311.179688 202.113281 -325.941406 193.40625 -338.046875 C 184.695312 -350.160156 173.332031 -356.21875 159.3125 -356.21875 Z M 159.3125 -356.21875 "/></g></g></g><g fill="#000000" fill-opacity="1"><g transform="translate(2785.630353, 501.827979)"><g><path d="M 251.078125 -103.875 C 251.078125 -87.300781 251.394531 -74.019531 252.03125 -64.03125 C 252.664062 -54.050781 254.148438 -43.960938 256.484375 -33.765625 C 258.816406 -23.578125 262.640625 -16.144531 267.953125 -11.46875 C 273.265625 -6.789062 279.957031 -4.453125 288.03125 -4.453125 L 288.03125 0 L 214.109375 0 L 214.109375 -22.9375 C 200.515625 -12.320312 186.601562 -3.722656 172.375 2.859375 C 158.144531 9.453125 145.929688 12.75 135.734375 12.75 C 109.390625 12.75 87.296875 4.039062 69.453125 -13.375 C 51.609375 -30.800781 38.863281 -53.316406 31.21875 -80.921875 C 23.570312 -108.535156 19.75 -140.398438 19.75 -176.515625 C 19.75 -212.617188 23.675781 -244.476562 31.53125 -272.09375 C 39.394531 -299.707031 52.25 -322.222656 70.09375 -339.640625 C 87.9375 -357.054688 109.816406 -365.765625 135.734375 -365.765625 C 162.492188 -365.765625 188.617188 -351.535156 214.109375 -323.078125 L 214.109375 -324.359375 C 214.109375 -340.492188 213.789062 -353.550781 213.15625 -363.53125 C 212.519531 -373.519531 211.03125 -383.503906 208.6875 -393.484375 C 206.351562 -403.472656 202.53125 -410.800781 197.21875 -415.46875 C 191.914062 -420.144531 185.226562 -422.484375 177.15625 -422.484375 L 177.15625 -426.953125 L 251.078125 -441.609375 Z M 214.109375 -33.140625 L 214.109375 -310.328125 C 202.210938 -324.773438 189.359375 -336.035156 175.546875 -344.109375 C 161.742188 -352.179688 148.472656 -356.21875 135.734375 -356.21875 C 110.242188 -356.21875 90.703125 -339.4375 77.109375 -305.875 C 63.515625 -272.3125 56.71875 -229.191406 56.71875 -176.515625 C 56.71875 -56.710938 83.054688 3.1875 135.734375 3.1875 C 157.816406 3.1875 183.941406 -8.921875 214.109375 -33.140625 Z M 214.109375 -33.140625 "/></g></g></g><g fill="#000000" fill-opacity="1"><g transform="translate(3109.338079, 501.827979)"><g><path d="M 251.703125 -59.90625 L 258.71875 -53.53125 C 241.726562 -31.007812 223.351562 -14.332031 203.59375 -3.5 C 183.84375 7.332031 164.195312 12.75 144.65625 12.75 C 105.988281 12.75 75.1875 -2.222656 52.25 -32.171875 C 29.3125 -62.128906 17.84375 -103.019531 17.84375 -154.84375 C 17.84375 -194.351562 24 -230.25 36.3125 -262.53125 C 48.632812 -294.820312 65.628906 -320.097656 87.296875 -338.359375 C 108.960938 -356.628906 132.96875 -365.765625 159.3125 -365.765625 C 181.820312 -365.765625 201.46875 -359.070312 218.25 -345.6875 C 235.03125 -332.3125 243.421875 -315.109375 243.421875 -294.078125 C 243.421875 -273.054688 233.863281 -253.515625 214.75 -235.453125 C 195.632812 -217.398438 171.945312 -203.171875 143.6875 -192.765625 C 115.4375 -182.359375 86.019531 -175.664062 55.4375 -172.6875 C 55.007812 -166.738281 54.796875 -160.789062 54.796875 -154.84375 C 54.796875 -104.289062 62.441406 -65.3125 77.734375 -37.90625 C 93.035156 -10.507812 115.34375 3.1875 144.65625 3.1875 C 182.039062 3.1875 217.722656 -17.84375 251.703125 -59.90625 Z M 159.3125 -356.21875 C 133.394531 -356.21875 110.664062 -339.007812 91.125 -304.59375 C 71.582031 -270.1875 59.898438 -229.617188 56.078125 -182.890625 C 72.640625 -185.015625 89.097656 -188.726562 105.453125 -194.03125 C 121.816406 -199.34375 137.859375 -206.351562 153.578125 -215.0625 C 169.296875 -223.769531 182.039062 -234.921875 191.8125 -248.515625 C 201.582031 -262.109375 206.46875 -277.191406 206.46875 -293.765625 C 206.46875 -311.179688 202.113281 -325.941406 193.40625 -338.046875 C 184.695312 -350.160156 173.332031 -356.21875 159.3125 -356.21875 Z M 159.3125 -356.21875 "/></g></g></g><g fill="#000000" fill-opacity="1"><g transform="translate(3403.7339, 501.827979)"><g><path d="M 56.71875 -303.953125 C 56.71875 -291.210938 61.28125 -278.253906 70.40625 -265.078125 C 79.539062 -251.910156 90.90625 -240.125 104.5 -229.71875 C 118.09375 -219.3125 132.960938 -207.84375 149.109375 -195.3125 C 165.253906 -182.78125 180.125 -170.882812 193.71875 -159.625 C 207.3125 -148.363281 218.675781 -135.191406 227.8125 -120.109375 C 236.945312 -105.035156 241.515625 -89.851562 241.515625 -74.5625 C 241.515625 -49.070312 232.484375 -28.144531 214.421875 -11.78125 C 196.367188 4.570312 171.625 12.75 140.1875 12.75 C 124.050781 12.75 104.507812 8.078125 81.5625 -1.265625 C 58.625 -10.617188 44.609375 -15.296875 39.515625 -15.296875 C 31.441406 -15.296875 27.40625 -10.195312 27.40625 0 L 22.9375 0 L 22.9375 -116.609375 L 27.40625 -116.609375 C 27.40625 -87.296875 39.9375 -60 65 -34.71875 C 90.0625 -9.445312 115.125 3.1875 140.1875 3.1875 C 161.425781 3.1875 177.460938 -2.863281 188.296875 -14.96875 C 199.128906 -27.082031 204.546875 -41.847656 204.546875 -59.265625 C 204.546875 -72.003906 201.144531 -84.535156 194.34375 -96.859375 C 187.550781 -109.179688 178.738281 -120.332031 167.90625 -130.3125 C 157.070312 -140.300781 145.070312 -150.285156 131.90625 -160.265625 C 118.738281 -170.242188 105.566406 -180.117188 92.390625 -189.890625 C 79.222656 -199.660156 67.222656 -209.535156 56.390625 -219.515625 C 45.554688 -229.503906 36.738281 -240.445312 29.9375 -252.34375 C 23.144531 -264.238281 19.75 -276.347656 19.75 -288.671875 C 19.75 -312.460938 29.203125 -331.257812 48.109375 -345.0625 C 67.015625 -358.863281 87.722656 -365.765625 110.234375 -365.765625 C 126.804688 -365.765625 144.96875 -361.09375 164.71875 -351.75 C 184.476562 -342.40625 198.394531 -337.734375 206.46875 -337.734375 C 214.113281 -337.734375 217.9375 -342.832031 217.9375 -353.03125 L 222.390625 -353.03125 C 222.390625 -352.175781 222.390625 -332.738281 222.390625 -294.71875 C 222.390625 -256.695312 222.390625 -237.257812 222.390625 -236.40625 L 217.296875 -236.40625 C 217.296875 -255.101562 212.832031 -273.582031 203.90625 -291.84375 C 194.988281 -310.113281 182.140625 -325.410156 165.359375 -337.734375 C 148.578125 -350.054688 130.203125 -356.21875 110.234375 -356.21875 C 94.941406 -356.21875 82.195312 -351.332031 72 -341.5625 C 61.8125 -331.789062 56.71875 -319.253906 56.71875 -303.953125 Z M 56.71875 -303.953125 "/></g></g></g></g></g><g clip-path="url(#4d1abc8f1b)"><path fill="#93c2a0" d="M 915.195312 458.289062 C 915.390625 460.085938 915.664062 461.867188 916.011719 463.640625 C 916.355469 465.414062 916.777344 467.167969 917.273438 468.90625 C 917.769531 470.644531 918.335938 472.355469 918.976562 474.046875 C 919.617188 475.734375 920.328125 477.394531 921.109375 479.023438 C 921.890625 480.652344 922.738281 482.246094 923.65625 483.800781 C 924.570312 485.359375 925.550781 486.875 926.597656 488.347656 C 927.640625 489.824219 928.746094 491.25 929.910156 492.632812 C 931.074219 494.011719 932.296875 495.339844 933.574219 496.621094 C 934.851562 497.898438 936.179688 499.117188 937.558594 500.28125 C 938.941406 501.449219 940.367188 502.550781 941.84375 503.597656 C 943.316406 504.640625 944.832031 505.621094 946.390625 506.535156 C 947.945312 507.453125 949.539062 508.300781 951.167969 509.082031 C 952.796875 509.863281 954.457031 510.574219 956.144531 511.214844 C 957.835938 511.855469 959.546875 512.421875 961.285156 512.917969 C 963.023438 513.414062 964.777344 513.835938 966.550781 514.183594 C 968.324219 514.527344 970.105469 514.800781 971.902344 514.996094 C 989.308594 516.902344 1011.78125 518.136719 1040.789062 518.136719 C 1011.78125 518.136719 989.308594 519.371094 971.902344 521.277344 C 970.105469 521.472656 968.324219 521.746094 966.550781 522.09375 C 964.777344 522.4375 963.023438 522.859375 961.285156 523.355469 C 959.546875 523.851562 957.835938 524.417969 956.144531 525.058594 C 954.457031 525.699219 952.796875 526.410156 951.167969 527.191406 C 949.539062 527.972656 947.945312 528.820312 946.390625 529.738281 C 944.832031 530.652344 943.316406 531.632812 941.84375 532.675781 C 940.367188 533.722656 938.941406 534.824219 937.558594 535.992188 C 936.179688 537.15625 934.851562 538.375 933.574219 539.652344 C 932.296875 540.929688 931.074219 542.261719 929.910156 543.640625 C 928.746094 545.023438 927.640625 546.449219 926.59375 547.925781 C 925.550781 549.398438 924.570312 550.914062 923.65625 552.472656 C 922.738281 554.027344 921.890625 555.621094 921.109375 557.25 C 920.328125 558.878906 919.617188 560.539062 918.976562 562.226562 C 918.335938 563.917969 917.769531 565.628906 917.273438 567.367188 C 916.777344 569.105469 916.355469 570.859375 916.011719 572.632812 C 915.664062 574.40625 915.390625 576.1875 915.195312 577.984375 C 913.289062 595.390625 912.054688 617.859375 912.054688 646.871094 C 912.054688 617.863281 910.820312 595.390625 908.914062 577.984375 C 908.71875 576.1875 908.449219 574.40625 908.101562 572.632812 C 907.753906 570.859375 907.332031 569.105469 906.835938 567.367188 C 906.339844 565.628906 905.773438 563.917969 905.132812 562.226562 C 904.492188 560.539062 903.78125 558.878906 903 557.25 C 902.21875 555.621094 901.371094 554.027344 900.453125 552.472656 C 899.539062 550.914062 898.558594 549.398438 897.515625 547.925781 C 896.46875 546.449219 895.367188 545.023438 894.199219 543.640625 C 893.035156 542.261719 891.816406 540.933594 890.539062 539.65625 C 889.261719 538.378906 887.929688 537.15625 886.550781 535.992188 C 885.167969 534.824219 883.742188 533.722656 882.269531 532.675781 C 880.792969 531.632812 879.277344 530.652344 877.71875 529.738281 C 876.164062 528.820312 874.570312 527.972656 872.941406 527.191406 C 871.3125 526.410156 869.652344 525.699219 867.964844 525.058594 C 866.273438 524.417969 864.5625 523.851562 862.824219 523.355469 C 861.085938 522.859375 859.332031 522.4375 857.558594 522.09375 C 855.785156 521.746094 854.003906 521.472656 852.207031 521.277344 C 834.800781 519.371094 812.328125 518.136719 783.320312 518.136719 C 812.328125 518.136719 834.800781 516.902344 852.207031 514.996094 C 854.003906 514.800781 855.785156 514.527344 857.558594 514.183594 C 859.332031 513.835938 861.085938 513.414062 862.824219 512.917969 C 864.5625 512.421875 866.273438 511.855469 867.964844 511.214844 C 869.652344 510.574219 871.3125 509.863281 872.941406 509.082031 C 874.570312 508.300781 876.164062 507.453125 877.71875 506.535156 C 879.277344 505.621094 880.792969 504.640625 882.269531 503.597656 C 883.742188 502.550781 885.167969 501.449219 886.550781 500.28125 C 887.929688 499.117188 889.261719 497.894531 890.539062 496.617188 C 891.816406 495.339844 893.035156 494.011719 894.199219 492.632812 C 895.367188 491.25 896.46875 489.824219 897.515625 488.347656 C 898.558594 486.875 899.539062 485.359375 900.453125 483.800781 C 901.371094 482.246094 902.21875 480.652344 903 479.023438 C 903.78125 477.394531 904.492188 475.734375 905.132812 474.046875 C 905.773438 472.355469 906.339844 470.644531 906.835938 468.90625 C 907.332031 467.167969 907.753906 465.414062 908.101562 463.640625 C 908.449219 461.867188 908.71875 460.085938 908.914062 458.289062 C 910.820312 440.882812 912.054688 418.410156 912.054688 389.402344 C 912.054688 418.410156 913.289062 440.882812 915.195312 458.289062 Z M 915.195312 458.289062 " fill-opacity="1" fill-rule="nonzero"/></g><g fill="#000000" fill-opacity="1"><g transform="translate(400.604826, 965.775551)"><g><path d="M 61.921875 -115.265625 C 76.628906 -115.265625 88.15625 -111.75 96.5 -104.71875 C 104.84375 -97.695312 109.015625 -88.039062 109.015625 -75.75 C 109.015625 -63.457031 104.84375 -53.820312 96.5 -46.84375 C 88.15625 -39.875 76.628906 -36.390625 61.921875 -36.390625 L 30.953125 -36.390625 L 30.953125 0 L 18.765625 0 L 18.765625 -115.265625 Z M 61.59375 -47.09375 C 73.007812 -47.09375 81.734375 -49.585938 87.765625 -54.578125 C 93.804688 -59.578125 96.828125 -66.632812 96.828125 -75.75 C 96.828125 -85.082031 93.804688 -92.242188 87.765625 -97.234375 C 81.734375 -102.234375 73.007812 -104.734375 61.59375 -104.734375 L 30.953125 -104.734375 L 30.953125 -47.09375 Z M 61.59375 -47.09375 "/></g></g></g><g fill="#000000" fill-opacity="1"><g transform="translate(650.564545, 965.775551)"><g><path d="M 50.546875 0.984375 C 41.984375 0.984375 33.773438 -0.382812 25.921875 -3.125 C 18.078125 -5.875 12.015625 -9.5 7.734375 -14 L 12.515625 -23.390625 C 16.679688 -19.210938 22.222656 -15.832031 29.140625 -13.25 C 36.054688 -10.675781 43.191406 -9.390625 50.546875 -9.390625 C 60.867188 -9.390625 68.609375 -11.28125 73.765625 -15.0625 C 78.929688 -18.851562 81.515625 -23.769531 81.515625 -29.8125 C 81.515625 -34.414062 80.113281 -38.085938 77.3125 -40.828125 C 74.507812 -43.578125 71.078125 -45.691406 67.015625 -47.171875 C 62.953125 -48.660156 57.300781 -50.28125 50.0625 -52.03125 C 41.382812 -54.226562 34.46875 -56.34375 29.3125 -58.375 C 24.15625 -60.40625 19.734375 -63.503906 16.046875 -67.671875 C 12.367188 -71.847656 10.53125 -77.503906 10.53125 -84.640625 C 10.53125 -90.460938 12.066406 -95.757812 15.140625 -100.53125 C 18.222656 -105.3125 22.945312 -109.128906 29.3125 -111.984375 C 35.675781 -114.835938 43.582031 -116.265625 53.03125 -116.265625 C 59.613281 -116.265625 66.0625 -115.359375 72.375 -113.546875 C 78.6875 -111.734375 84.148438 -109.234375 88.765625 -106.046875 L 84.640625 -96.328125 C 79.804688 -99.515625 74.644531 -101.90625 69.15625 -103.5 C 63.664062 -105.09375 58.289062 -105.890625 53.03125 -105.890625 C 42.925781 -105.890625 35.320312 -103.9375 30.21875 -100.03125 C 25.113281 -96.132812 22.5625 -91.113281 22.5625 -84.96875 C 22.5625 -80.351562 23.957031 -76.644531 26.75 -73.84375 C 29.550781 -71.050781 33.066406 -68.910156 37.296875 -67.421875 C 41.523438 -65.941406 47.207031 -64.328125 54.34375 -62.578125 C 62.789062 -60.492188 69.625 -58.4375 74.84375 -56.40625 C 80.0625 -54.375 84.476562 -51.296875 88.09375 -47.171875 C 91.71875 -43.054688 93.53125 -37.488281 93.53125 -30.46875 C 93.53125 -24.644531 91.960938 -19.34375 88.828125 -14.5625 C 85.703125 -9.789062 80.898438 -6.003906 74.421875 -3.203125 C 67.953125 -0.410156 59.992188 0.984375 50.546875 0.984375 Z M 50.546875 0.984375 "/></g></g></g><g fill="#000000" fill-opacity="1"><g transform="translate(883.564225, 965.775551)"><g><path d="M 18.765625 -115.265625 L 30.953125 -115.265625 L 30.953125 0 L 18.765625 0 Z M 18.765625 -115.265625 "/></g></g></g><g fill="#000000" fill-opacity="1"><g transform="translate(1065.025248, 965.775551)"><g><path d="M 68.828125 0.984375 C 57.410156 0.984375 47.117188 -1.535156 37.953125 -6.578125 C 28.785156 -11.628906 21.59375 -18.628906 16.375 -27.578125 C 11.164062 -36.523438 8.5625 -46.546875 8.5625 -57.640625 C 8.5625 -68.722656 11.164062 -78.738281 16.375 -87.6875 C 21.59375 -96.632812 28.8125 -103.632812 38.03125 -108.6875 C 47.257812 -113.738281 57.582031 -116.265625 69 -116.265625 C 77.5625 -116.265625 85.460938 -114.835938 92.703125 -111.984375 C 99.953125 -109.128906 106.101562 -104.957031 111.15625 -99.46875 L 103.40625 -91.71875 C 94.40625 -100.832031 83.046875 -105.390625 69.328125 -105.390625 C 60.210938 -105.390625 51.921875 -103.300781 44.453125 -99.125 C 36.992188 -94.957031 31.148438 -89.25 26.921875 -82 C 22.691406 -74.757812 20.578125 -66.640625 20.578125 -57.640625 C 20.578125 -48.628906 22.691406 -40.5 26.921875 -33.25 C 31.148438 -26.007812 36.992188 -20.300781 44.453125 -16.125 C 51.921875 -11.957031 60.210938 -9.875 69.328125 -9.875 C 83.160156 -9.875 94.519531 -14.488281 103.40625 -23.71875 L 111.15625 -15.96875 C 106.101562 -10.476562 99.925781 -6.28125 92.625 -3.375 C 85.320312 -0.46875 77.390625 0.984375 68.828125 0.984375 Z M 68.828125 0.984375 "/></g></g></g><g fill="#000000" fill-opacity="1"><g transform="translate(1312.679636, 965.775551)"><g><path d="M 69.15625 0.984375 C 57.738281 0.984375 47.390625 -1.566406 38.109375 -6.671875 C 28.835938 -11.773438 21.59375 -18.769531 16.375 -27.65625 C 11.164062 -36.550781 8.5625 -46.546875 8.5625 -57.640625 C 8.5625 -68.722656 11.164062 -78.707031 16.375 -87.59375 C 21.59375 -96.488281 28.835938 -103.488281 38.109375 -108.59375 C 47.390625 -113.707031 57.738281 -116.265625 69.15625 -116.265625 C 80.570312 -116.265625 90.863281 -113.738281 100.03125 -108.6875 C 109.195312 -103.632812 116.414062 -96.632812 121.6875 -87.6875 C 126.957031 -78.738281 129.59375 -68.722656 129.59375 -57.640625 C 129.59375 -46.546875 126.957031 -36.523438 121.6875 -27.578125 C 116.414062 -18.628906 109.195312 -11.628906 100.03125 -6.578125 C 90.863281 -1.535156 80.570312 0.984375 69.15625 0.984375 Z M 69.15625 -9.875 C 78.269531 -9.875 86.503906 -11.929688 93.859375 -16.046875 C 101.210938 -20.171875 106.972656 -25.878906 111.140625 -33.171875 C 115.316406 -40.472656 117.40625 -48.628906 117.40625 -57.640625 C 117.40625 -66.640625 115.316406 -74.789062 111.140625 -82.09375 C 106.972656 -89.394531 101.210938 -95.101562 93.859375 -99.21875 C 86.503906 -103.332031 78.269531 -105.390625 69.15625 -105.390625 C 60.050781 -105.390625 51.789062 -103.332031 44.375 -99.21875 C 36.96875 -95.101562 31.148438 -89.394531 26.921875 -82.09375 C 22.691406 -74.789062 20.578125 -66.640625 20.578125 -57.640625 C 20.578125 -48.628906 22.691406 -40.472656 26.921875 -33.171875 C 31.148438 -25.878906 36.96875 -20.171875 44.375 -16.046875 C 51.789062 -11.929688 60.050781 -9.875 69.15625 -9.875 Z M 81.015625 -145.078125 L 96.65625 -145.078125 L 69.984375 -124.65625 L 58.453125 -124.65625 Z M 81.015625 -145.078125 "/></g></g></g><g fill="#000000" fill-opacity="1"><g transform="translate(1582.563254, 965.775551)"><g><path d="M 18.765625 -115.265625 L 30.953125 -115.265625 L 30.953125 -10.53125 L 95.515625 -10.53125 L 95.515625 0 L 18.765625 0 Z M 18.765625 -115.265625 "/></g></g></g><g fill="#000000" fill-opacity="1"><g transform="translate(1808.976487, 965.775551)"><g><path d="M 69.15625 0.984375 C 57.738281 0.984375 47.390625 -1.566406 38.109375 -6.671875 C 28.835938 -11.773438 21.59375 -18.769531 16.375 -27.65625 C 11.164062 -36.550781 8.5625 -46.546875 8.5625 -57.640625 C 8.5625 -68.722656 11.164062 -78.707031 16.375 -87.59375 C 21.59375 -96.488281 28.835938 -103.488281 38.109375 -108.59375 C 47.390625 -113.707031 57.738281 -116.265625 69.15625 -116.265625 C 80.570312 -116.265625 90.863281 -113.738281 100.03125 -108.6875 C 109.195312 -103.632812 116.414062 -96.632812 121.6875 -87.6875 C 126.957031 -78.738281 129.59375 -68.722656 129.59375 -57.640625 C 129.59375 -46.546875 126.957031 -36.523438 121.6875 -27.578125 C 116.414062 -18.628906 109.195312 -11.628906 100.03125 -6.578125 C 90.863281 -1.535156 80.570312 0.984375 69.15625 0.984375 Z M 69.15625 -9.875 C 78.269531 -9.875 86.503906 -11.929688 93.859375 -16.046875 C 101.210938 -20.171875 106.972656 -25.878906 111.140625 -33.171875 C 115.316406 -40.472656 117.40625 -48.628906 117.40625 -57.640625 C 117.40625 -66.640625 115.316406 -74.789062 111.140625 -82.09375 C 106.972656 -89.394531 101.210938 -95.101562 93.859375 -99.21875 C 86.503906 -103.332031 78.269531 -105.390625 69.15625 -105.390625 C 60.050781 -105.390625 51.789062 -103.332031 44.375 -99.21875 C 36.96875 -95.101562 31.148438 -89.394531 26.921875 -82.09375 C 22.691406 -74.789062 20.578125 -66.640625 20.578125 -57.640625 C 20.578125 -48.628906 22.691406 -40.472656 26.921875 -33.171875 C 31.148438 -25.878906 36.96875 -20.171875 44.375 -16.046875 C 51.789062 -11.929688 60.050781 -9.875 69.15625 -9.875 Z M 69.15625 -9.875 "/></g></g></g><g fill="#000000" fill-opacity="1"><g transform="translate(2078.860106, 965.775551)"><g><path d="M 99.953125 -57.640625 L 111.640625 -57.640625 L 111.640625 -13.671875 C 106.265625 -8.953125 99.898438 -5.328125 92.546875 -2.796875 C 85.191406 -0.273438 77.453125 0.984375 69.328125 0.984375 C 57.796875 0.984375 47.421875 -1.535156 38.203125 -6.578125 C 28.984375 -11.628906 21.738281 -18.628906 16.46875 -27.578125 C 11.195312 -36.523438 8.5625 -46.546875 8.5625 -57.640625 C 8.5625 -68.722656 11.195312 -78.738281 16.46875 -87.6875 C 21.738281 -96.632812 28.984375 -103.632812 38.203125 -108.6875 C 47.421875 -113.738281 57.847656 -116.265625 69.484375 -116.265625 C 78.273438 -116.265625 86.347656 -114.863281 93.703125 -112.0625 C 101.054688 -109.257812 107.257812 -105.113281 112.3125 -99.625 L 104.734375 -91.890625 C 95.617188 -100.890625 84.035156 -105.390625 69.984375 -105.390625 C 60.648438 -105.390625 52.222656 -103.332031 44.703125 -99.21875 C 37.179688 -95.101562 31.28125 -89.394531 27 -82.09375 C 22.71875 -74.789062 20.578125 -66.640625 20.578125 -57.640625 C 20.578125 -48.628906 22.71875 -40.5 27 -33.25 C 31.28125 -26.007812 37.15625 -20.300781 44.625 -16.125 C 52.09375 -11.957031 60.492188 -9.875 69.828125 -9.875 C 81.679688 -9.875 91.722656 -12.835938 99.953125 -18.765625 Z M 99.953125 -57.640625 "/></g></g></g><g fill="#000000" fill-opacity="1"><g transform="translate(2337.876081, 965.775551)"><g><path d="M 91.0625 -30.796875 L 26.84375 -30.796875 L 13.015625 0 L 0.328125 0 L 53.03125 -115.265625 L 65.046875 -115.265625 L 117.734375 0 L 104.890625 0 Z M 86.625 -40.671875 L 58.953125 -102.59375 L 31.28125 -40.671875 Z M 86.625 -40.671875 "/></g></g></g></svg>