<svg xmlns="http://www.w3.org/2000/svg" xmlns:xlink="http://www.w3.org/1999/xlink" width="7751" zoomAndPan="magnify" viewBox="0 0 5813.25 3402.750016" height="4537" preserveAspectRatio="xMidYMid meet" version="1.0"><defs><g/><clipPath id="56d3cdf5ae"><rect x="0" width="4831" y="0" height="2513"/></clipPath><clipPath id="5a3d890cdb"><path d="M 2243.851562 872.699219 L 2830.273438 872.699219 L 2830.273438 1459.121094 L 2243.851562 1459.121094 Z M 2243.851562 872.699219 " clip-rule="nonzero"/></clipPath><clipPath id="506f3dafff"><rect x="0" width="4989" y="0" height="461"/></clipPath></defs><g transform="matrix(1, 0, 0, 1, 522, 423)"><g clip-path="url(#56d3cdf5ae)"><g fill="#bbd6d1" fill-opacity="1"><g transform="translate(871.453359, 1141.651185)"><g><path d="M 323.703125 26.125 C 300.472656 24.1875 274.34375 19.347656 245.3125 11.609375 C 216.28125 3.867188 191.359375 -3.144531 170.546875 -9.4375 C 149.742188 -15.726562 130.148438 -21.050781 111.765625 -25.40625 C 93.378906 -29.757812 79.101562 -30 68.9375 -26.125 C 58.78125 -22.257812 53.703125 -13.550781 53.703125 0 L 43.546875 0 L 43.546875 -265.640625 L 53.703125 -265.640625 C 53.703125 -212.410156 75.472656 -159.664062 119.015625 -107.40625 C 162.566406 -55.15625 218.695312 -20.320312 287.40625 -2.90625 C 313.539062 3.875 339.671875 7.265625 365.796875 7.265625 C 368.703125 7.265625 371.125 7.265625 373.0625 7.265625 C 433.050781 7.265625 480.460938 -10.632812 515.296875 -46.4375 C 550.140625 -82.25 567.5625 -124.832031 567.5625 -174.1875 C 567.5625 -204.1875 557.882812 -236.117188 538.53125 -269.984375 C 519.175781 -303.859375 493.289062 -335.796875 460.875 -365.796875 C 428.457031 -395.796875 397.003906 -422.40625 366.515625 -445.625 C 336.035156 -468.851562 304.34375 -490.628906 271.4375 -510.953125 C 191.125 -558.367188 133.0625 -605.300781 97.25 -651.75 C 61.445312 -698.207031 43.546875 -753.367188 43.546875 -817.234375 C 43.546875 -886.910156 65.800781 -940.617188 110.3125 -978.359375 C 154.832031 -1016.097656 209.507812 -1034.96875 274.34375 -1034.96875 L 275.796875 -1034.96875 C 278.703125 -1034.96875 281.609375 -1034.96875 284.515625 -1034.96875 C 308.703125 -1034.007812 336.28125 -1029.414062 367.25 -1021.1875 C 398.21875 -1012.957031 425.3125 -1004.726562 448.53125 -996.5 C 471.757812 -988.28125 493.773438 -981.507812 514.578125 -976.1875 C 535.390625 -970.863281 551.359375 -970.378906 562.484375 -974.734375 C 573.609375 -979.085938 579.171875 -989.488281 579.171875 -1005.9375 L 589.34375 -1005.9375 L 589.34375 -740.3125 L 579.171875 -740.3125 C 579.171875 -774.175781 567.554688 -809.734375 544.328125 -846.984375 C 521.109375 -884.242188 490.382812 -917.390625 452.15625 -946.421875 C 413.9375 -975.453125 374.503906 -995.289062 333.859375 -1005.9375 C 319.347656 -1009.8125 305.316406 -1012.234375 291.765625 -1013.203125 L 275.796875 -1013.203125 C 245.796875 -1013.203125 218.941406 -1008.847656 195.234375 -1000.140625 C 171.523438 -991.429688 152.894531 -979.578125 139.34375 -964.578125 C 125.800781 -949.578125 115.640625 -933.363281 108.859375 -915.9375 C 102.085938 -898.519531 98.703125 -880.617188 98.703125 -862.234375 C 98.703125 -843.847656 100.632812 -826.425781 104.5 -809.96875 C 108.375 -793.519531 113.210938 -779.003906 119.015625 -766.421875 C 124.828125 -753.847656 133.296875 -740.785156 144.421875 -727.234375 C 155.554688 -713.691406 165.476562 -702.320312 174.1875 -693.125 C 182.894531 -683.9375 194.988281 -673.535156 210.46875 -661.921875 C 225.957031 -650.304688 238.78125 -641.109375 248.9375 -634.328125 C 259.101562 -627.554688 273.378906 -618.125 291.765625 -606.03125 C 310.148438 -593.9375 323.695312 -584.984375 332.40625 -579.171875 C 343.050781 -571.429688 361.679688 -558.609375 388.296875 -540.703125 C 414.910156 -522.804688 434.019531 -509.742188 445.625 -501.515625 C 457.238281 -493.296875 473.929688 -480.957031 495.703125 -464.5 C 517.484375 -448.050781 533.695312 -434.503906 544.34375 -423.859375 C 554.988281 -413.210938 567.8125 -399.179688 582.8125 -381.765625 C 597.8125 -364.347656 608.695312 -347.894531 615.46875 -332.40625 C 622.238281 -316.925781 628.039062 -299.023438 632.875 -278.703125 C 637.71875 -258.378906 640.140625 -237.570312 640.140625 -216.28125 C 640.140625 -144.675781 615.222656 -85.890625 565.390625 -39.921875 C 515.554688 6.046875 446.609375 29.03125 358.546875 29.03125 C 355.640625 29.03125 352.25 29.03125 348.375 29.03125 C 347.40625 29.03125 346.4375 29.03125 345.46875 29.03125 C 342.570312 28.0625 339.671875 27.578125 336.765625 27.578125 C 336.765625 27.578125 335.796875 27.578125 333.859375 27.578125 C 331.921875 27.578125 329.988281 27.578125 328.0625 27.578125 C 325.15625 26.609375 323.703125 26.125 323.703125 26.125 Z M 323.703125 26.125 "/></g></g></g><g fill="#bbd6d1" fill-opacity="1"><g transform="translate(1608.841972, 1141.651185)"><g><path d="M 406.4375 -833.203125 C 516.757812 -833.203125 606.03125 -791.832031 674.25 -709.09375 C 742.476562 -626.351562 776.59375 -524.015625 776.59375 -402.078125 C 776.59375 -280.148438 742.476562 -177.816406 674.25 -95.078125 C 606.03125 -12.335938 516.757812 29.03125 406.4375 29.03125 C 296.125 29.03125 206.851562 -12.335938 138.625 -95.078125 C 70.40625 -177.816406 36.296875 -280.15625 36.296875 -402.09375 C 36.296875 -461.125 45.242188 -517.007812 63.140625 -569.75 C 81.046875 -622.488281 105.722656 -668.210938 137.171875 -706.921875 C 168.617188 -745.628906 207.566406 -776.351562 254.015625 -799.09375 C 300.472656 -821.832031 351.28125 -833.203125 406.4375 -833.203125 Z M 205.390625 -106.6875 C 262.003906 -30.71875 329.019531 7.265625 406.4375 7.265625 C 483.851562 7.265625 550.867188 -30.71875 607.484375 -106.6875 C 664.097656 -182.65625 692.40625 -281.125 692.40625 -402.09375 C 692.40625 -516.28125 664.582031 -613.050781 608.9375 -692.40625 C 553.289062 -771.757812 485.789062 -811.4375 406.4375 -811.4375 C 327.082031 -811.4375 259.582031 -771.757812 203.9375 -692.40625 C 148.300781 -613.050781 120.484375 -516.28125 120.484375 -402.09375 C 120.484375 -281.125 148.785156 -182.65625 205.390625 -106.6875 Z M 205.390625 -106.6875 "/></g></g></g><g fill="#bbd6d1" fill-opacity="1"><g transform="translate(2484.127382, 1141.651185)"><g><path d="M 365.796875 -1034.96875 C 404.503906 -1034.96875 467.40625 -1021.90625 554.5 -995.78125 L 554.5 -870.953125 C 536.113281 -907.722656 510.46875 -940.625 477.5625 -969.65625 C 444.664062 -998.6875 407.410156 -1013.203125 365.796875 -1013.203125 C 309.671875 -1013.203125 266.847656 -996.75 237.328125 -963.84375 C 207.816406 -930.945312 191.125 -877.722656 187.25 -804.171875 L 365.796875 -804.171875 L 365.796875 -782.40625 L 187.25 -782.40625 C 187.25 -778.53125 187.25 -775.140625 187.25 -772.234375 L 187.25 -236.609375 C 187.25 -198.867188 187.972656 -168.625 189.421875 -145.875 C 190.878906 -123.132812 194.269531 -100.148438 199.59375 -76.921875 C 204.914062 -53.703125 213.625 -36.769531 225.71875 -26.125 C 237.8125 -15.476562 253.050781 -10.15625 271.4375 -10.15625 L 271.4375 0 L 18.875 0 L 18.875 -10.15625 C 37.257812 -10.15625 52.5 -15.476562 64.59375 -26.125 C 76.6875 -36.769531 85.394531 -53.703125 90.71875 -76.921875 C 96.039062 -100.148438 99.425781 -123.132812 100.875 -145.875 C 102.332031 -168.625 103.0625 -198.867188 103.0625 -236.609375 L 103.0625 -772.234375 C 103.0625 -776.109375 103.0625 -779.5 103.0625 -782.40625 L 36.296875 -782.40625 L 36.296875 -804.171875 L 104.515625 -804.171875 C 108.378906 -889.328125 132.085938 -949.082031 175.640625 -983.4375 C 219.191406 -1017.789062 282.578125 -1034.96875 365.796875 -1034.96875 Z M 365.796875 -1034.96875 "/></g></g></g><g fill="#bbd6d1" fill-opacity="1"><g transform="translate(2909.433682, 1141.651185)"><g><path d="M 188.703125 -264.1875 C 188.703125 -227.414062 189.425781 -197.65625 190.875 -174.90625 C 192.332031 -152.164062 195.722656 -129.179688 201.046875 -105.953125 C 206.367188 -82.734375 215.078125 -65.800781 227.171875 -55.15625 C 239.265625 -44.507812 254.503906 -39.1875 272.890625 -39.1875 L 272.890625 -29.03125 L 20.328125 -29.03125 L 20.328125 -39.1875 C 38.710938 -39.1875 53.953125 -44.507812 66.046875 -55.15625 C 78.140625 -65.800781 86.847656 -82.734375 92.171875 -105.953125 C 97.492188 -129.179688 100.878906 -152.164062 102.328125 -174.90625 C 103.785156 -197.65625 104.515625 -227.414062 104.515625 -264.1875 L 104.515625 -566.109375 C 104.515625 -602.890625 103.785156 -632.648438 102.328125 -655.390625 C 100.878906 -678.128906 97.492188 -700.867188 92.171875 -723.609375 C 86.847656 -746.347656 78.140625 -763.039062 66.046875 -773.6875 C 53.953125 -784.332031 38.710938 -789.65625 20.328125 -789.65625 L 20.328125 -799.8125 L 188.703125 -833.203125 Z M 265.640625 -1053.84375 L 49.359375 -929.015625 L 26.125 -955.140625 L 190.15625 -1139.484375 Z M 265.640625 -1053.84375 "/></g></g></g><g fill="#bbd6d1" fill-opacity="1"><g transform="translate(3260.71117, 1141.651185)"><g><path d="M 351.28125 -833.203125 C 376.4375 -833.203125 400.867188 -830.054688 424.578125 -823.765625 C 448.296875 -817.472656 471.523438 -807.3125 494.265625 -793.28125 C 517.003906 -779.25 535.390625 -758.203125 549.421875 -730.140625 C 563.453125 -702.078125 570.46875 -669.175781 570.46875 -631.4375 L 570.46875 0 C 551.113281 -11.613281 523.050781 -29.515625 486.28125 -53.703125 C 429.1875 1.453125 365.800781 29.03125 296.125 29.03125 C 126.769531 29.03125 42.09375 -60 42.09375 -238.0625 C 42.09375 -436.4375 189.671875 -576.753906 484.828125 -659.015625 C 479.023438 -760.628906 434.507812 -811.4375 351.28125 -811.4375 C 296.125 -811.4375 241.929688 -790.867188 188.703125 -749.734375 C 135.484375 -708.609375 98.226562 -663.367188 76.9375 -614.015625 L 76.9375 -738.859375 C 176.613281 -801.753906 268.0625 -833.203125 351.28125 -833.203125 Z M 486.28125 -76.9375 L 486.28125 -631.4375 C 486.28125 -634.34375 486.28125 -637.726562 486.28125 -641.59375 C 439.832031 -627.082031 396.285156 -608.210938 355.640625 -584.984375 C 314.992188 -561.753906 277.007812 -533.6875 241.6875 -500.78125 C 206.363281 -467.882812 178.296875 -428.9375 157.484375 -383.9375 C 136.679688 -338.9375 126.28125 -290.3125 126.28125 -238.0625 C 126.28125 -156.769531 142.25 -95.554688 174.1875 -54.421875 C 206.125 -13.296875 246.769531 7.265625 296.125 7.265625 C 370.632812 7.265625 434.019531 -20.800781 486.28125 -76.9375 Z M 486.28125 -76.9375 "/></g></g></g><g fill="#bbd6d1" fill-opacity="1"><g transform="translate(7.030162, 2196.586123)"><g><path d="M 274.34375 0 C 268.539062 0 240.234375 0 189.421875 0 C 138.617188 0 110.800781 0 105.96875 0 L 21.78125 0 L 21.78125 -10.15625 C 40.164062 -10.15625 55.40625 -15.476562 67.5 -26.125 C 79.59375 -36.769531 88.300781 -53.703125 93.625 -76.921875 C 98.945312 -100.148438 102.332031 -123.132812 103.78125 -145.875 C 105.238281 -168.625 105.96875 -198.867188 105.96875 -236.609375 L 105.96875 -770.78125 C 105.96875 -807.5625 105.238281 -837.320312 103.78125 -860.0625 C 102.332031 -882.800781 98.945312 -905.78125 93.625 -929 C 88.300781 -952.226562 79.59375 -969.164062 67.5 -979.8125 C 55.40625 -990.457031 40.164062 -995.78125 21.78125 -995.78125 L 21.78125 -1005.9375 L 105.96875 -1005.9375 C 127.257812 -1005.9375 173.707031 -1010.773438 245.3125 -1020.453125 C 316.925781 -1030.128906 375.957031 -1034.96875 422.40625 -1034.96875 C 497.882812 -1034.96875 561.992188 -1011.015625 614.734375 -963.109375 C 667.484375 -915.210938 693.859375 -846.265625 693.859375 -756.265625 C 693.859375 -659.492188 665.550781 -588.847656 608.9375 -544.328125 C 552.320312 -499.816406 475.144531 -477.5625 377.40625 -477.5625 C 355.15625 -477.5625 292.738281 -479.984375 190.15625 -484.828125 L 190.15625 -236.609375 C 190.15625 -198.867188 190.878906 -168.625 192.328125 -145.875 C 193.785156 -123.132812 197.175781 -100.148438 202.5 -76.921875 C 207.820312 -53.703125 216.53125 -36.769531 228.625 -26.125 C 240.71875 -15.476562 255.957031 -10.15625 274.34375 -10.15625 Z M 190.15625 -992.875 L 190.15625 -506.59375 C 296.601562 -501.757812 359.019531 -499.34375 377.40625 -499.34375 C 444.175781 -499.34375 499.816406 -520.144531 544.328125 -561.75 C 588.847656 -603.363281 611.109375 -668.203125 611.109375 -756.265625 C 611.109375 -803.691406 604.816406 -845.0625 592.234375 -880.375 C 579.660156 -915.695312 563.210938 -942.550781 542.890625 -960.9375 C 522.566406 -979.332031 502.242188 -992.640625 481.921875 -1000.859375 C 461.597656 -1009.085938 441.757812 -1013.203125 422.40625 -1013.203125 C 380.789062 -1013.203125 303.375 -1006.425781 190.15625 -992.875 Z M 190.15625 -992.875 "/></g></g></g><g fill="#bbd6d1" fill-opacity="1"><g transform="translate(780.707396, 2196.586123)"><g><path d="M 351.28125 -833.203125 C 376.4375 -833.203125 400.867188 -830.054688 424.578125 -823.765625 C 448.296875 -817.472656 471.523438 -807.3125 494.265625 -793.28125 C 517.003906 -779.25 535.390625 -758.203125 549.421875 -730.140625 C 563.453125 -702.078125 570.46875 -669.175781 570.46875 -631.4375 L 570.46875 0 C 551.113281 -11.613281 523.050781 -29.515625 486.28125 -53.703125 C 429.1875 1.453125 365.800781 29.03125 296.125 29.03125 C 126.769531 29.03125 42.09375 -60 42.09375 -238.0625 C 42.09375 -436.4375 189.671875 -576.753906 484.828125 -659.015625 C 479.023438 -760.628906 434.507812 -811.4375 351.28125 -811.4375 C 296.125 -811.4375 241.929688 -790.867188 188.703125 -749.734375 C 135.484375 -708.609375 98.226562 -663.367188 76.9375 -614.015625 L 76.9375 -738.859375 C 176.613281 -801.753906 268.0625 -833.203125 351.28125 -833.203125 Z M 486.28125 -76.9375 L 486.28125 -631.4375 C 486.28125 -634.34375 486.28125 -637.726562 486.28125 -641.59375 C 439.832031 -627.082031 396.285156 -608.210938 355.640625 -584.984375 C 314.992188 -561.753906 277.007812 -533.6875 241.6875 -500.78125 C 206.363281 -467.882812 178.296875 -428.9375 157.484375 -383.9375 C 136.679688 -338.9375 126.28125 -290.3125 126.28125 -238.0625 C 126.28125 -156.769531 142.25 -95.554688 174.1875 -54.421875 C 206.125 -13.296875 246.769531 7.265625 296.125 7.265625 C 370.632812 7.265625 434.019531 -20.800781 486.28125 -76.9375 Z M 486.28125 -76.9375 "/></g></g></g><g fill="#bbd6d1" fill-opacity="1"><g transform="translate(1478.904229, 2196.586123)"><g><path d="M 368.703125 -833.203125 C 391.921875 -833.203125 419.253906 -829.816406 450.703125 -823.046875 C 482.160156 -816.273438 507.566406 -809.984375 526.921875 -804.171875 L 555.953125 -794.015625 C 555.953125 -794.015625 525.46875 -751.675781 464.5 -667 C 403.539062 -582.320312 373.0625 -539.5 373.0625 -538.53125 L 362.890625 -538.53125 C 375.472656 -559.820312 387.8125 -584.015625 399.90625 -611.109375 C 412 -638.210938 422.398438 -667.726562 431.109375 -699.65625 C 439.828125 -731.59375 438.617188 -758.207031 427.484375 -779.5 C 416.359375 -800.789062 394.34375 -811.4375 361.4375 -811.4375 C 305.3125 -810.46875 263.21875 -792.320312 235.15625 -757 C 207.09375 -721.675781 192.09375 -665.789062 190.15625 -589.34375 L 190.15625 -236.609375 C 190.15625 -198.867188 190.878906 -168.625 192.328125 -145.875 C 193.785156 -123.132812 197.175781 -100.148438 202.5 -76.921875 C 207.820312 -53.703125 216.53125 -36.769531 228.625 -26.125 C 240.71875 -15.476562 255.957031 -10.15625 274.34375 -10.15625 L 274.34375 0 L 21.78125 0 L 21.78125 -10.15625 C 40.164062 -10.15625 55.40625 -15.476562 67.5 -26.125 C 79.59375 -36.769531 88.300781 -53.703125 93.625 -76.921875 C 98.945312 -100.148438 102.332031 -123.132812 103.78125 -145.875 C 105.238281 -168.625 105.96875 -198.867188 105.96875 -236.609375 L 105.96875 -537.078125 C 105.96875 -573.859375 105.238281 -603.617188 103.78125 -626.359375 C 102.332031 -649.097656 98.945312 -671.835938 93.625 -694.578125 C 88.300781 -717.316406 79.59375 -734.007812 67.5 -744.65625 C 55.40625 -755.300781 40.164062 -760.625 21.78125 -760.625 L 21.78125 -770.78125 L 190.15625 -804.171875 L 190.15625 -722.890625 C 220.15625 -796.429688 279.671875 -833.203125 368.703125 -833.203125 Z M 368.703125 -833.203125 "/></g></g></g><g fill="#bbd6d1" fill-opacity="1"><g transform="translate(2094.362882, 2196.586123)"><g><path d="M 573.375 -136.453125 L 589.34375 -121.9375 C 550.632812 -70.644531 508.78125 -32.660156 463.78125 -7.984375 C 418.78125 16.691406 374.023438 29.03125 329.515625 29.03125 C 241.453125 29.03125 171.289062 -5.078125 119.03125 -73.296875 C 66.769531 -141.523438 40.640625 -234.671875 40.640625 -352.734375 C 40.640625 -442.734375 54.671875 -524.503906 82.734375 -598.046875 C 110.796875 -671.597656 149.503906 -729.175781 198.859375 -770.78125 C 248.210938 -812.394531 302.890625 -833.203125 362.890625 -833.203125 C 414.179688 -833.203125 458.9375 -817.957031 497.15625 -787.46875 C 535.382812 -756.988281 554.5 -717.796875 554.5 -669.890625 C 554.5 -621.992188 532.722656 -577.484375 489.171875 -536.359375 C 445.628906 -495.234375 391.679688 -462.8125 327.328125 -439.09375 C 262.972656 -415.382812 195.957031 -400.144531 126.28125 -393.375 C 125.3125 -379.832031 124.828125 -366.285156 124.828125 -352.734375 C 124.828125 -237.578125 142.242188 -148.785156 177.078125 -86.359375 C 211.921875 -23.941406 262.734375 7.265625 329.515625 7.265625 C 414.671875 7.265625 495.957031 -40.640625 573.375 -136.453125 Z M 362.890625 -811.4375 C 303.859375 -811.4375 252.082031 -772.242188 207.5625 -693.859375 C 163.050781 -615.472656 136.441406 -523.054688 127.734375 -416.609375 C 165.472656 -421.441406 202.972656 -429.90625 240.234375 -442 C 277.492188 -454.101562 314.023438 -470.070312 349.828125 -489.90625 C 385.628906 -509.75 414.660156 -535.148438 436.921875 -566.109375 C 459.179688 -597.078125 470.3125 -631.429688 470.3125 -669.171875 C 470.3125 -708.847656 460.390625 -742.476562 440.546875 -770.0625 C 420.710938 -797.644531 394.828125 -811.4375 362.890625 -811.4375 Z M 362.890625 -811.4375 "/></g></g></g><g fill="#bbd6d1" fill-opacity="1"><g transform="translate(2764.980472, 2196.586123)"><g><path d="M 571.921875 -236.609375 C 571.921875 -198.867188 572.644531 -168.625 574.09375 -145.875 C 575.550781 -123.132812 578.941406 -100.148438 584.265625 -76.921875 C 589.585938 -53.703125 598.296875 -36.769531 610.390625 -26.125 C 622.484375 -15.476562 637.722656 -10.15625 656.109375 -10.15625 L 656.109375 0 L 487.734375 0 L 487.734375 -52.25 C 456.765625 -28.0625 425.070312 -8.46875 392.65625 6.53125 C 360.238281 21.53125 332.414062 29.03125 309.1875 29.03125 C 249.1875 29.03125 198.863281 9.191406 158.21875 -30.484375 C 117.570312 -70.160156 88.539062 -121.445312 71.125 -184.34375 C 53.707031 -247.25 45 -319.832031 45 -402.09375 C 45 -484.34375 53.945312 -556.914062 71.84375 -619.8125 C 89.75 -682.71875 119.023438 -734.007812 159.671875 -773.6875 C 200.316406 -813.363281 250.15625 -833.203125 309.1875 -833.203125 C 370.15625 -833.203125 429.671875 -800.785156 487.734375 -735.953125 L 487.734375 -738.859375 C 487.734375 -775.628906 487.003906 -805.382812 485.546875 -828.125 C 484.097656 -850.863281 480.710938 -873.601562 475.390625 -896.34375 C 470.066406 -919.09375 461.359375 -935.785156 449.265625 -946.421875 C 437.171875 -957.066406 421.925781 -962.390625 403.53125 -962.390625 L 403.53125 -972.5625 L 571.921875 -1005.9375 Z M 487.734375 -75.484375 L 487.734375 -706.921875 C 460.640625 -739.816406 431.363281 -765.457031 399.90625 -783.84375 C 368.457031 -802.238281 338.21875 -811.4375 309.1875 -811.4375 C 251.125 -811.4375 206.609375 -773.207031 175.640625 -696.75 C 144.671875 -620.300781 129.1875 -522.082031 129.1875 -402.09375 C 129.1875 -129.1875 189.1875 7.265625 309.1875 7.265625 C 359.507812 7.265625 419.023438 -20.316406 487.734375 -75.484375 Z M 487.734375 -75.484375 "/></g></g></g><g fill="#bbd6d1" fill-opacity="1"><g transform="translate(3502.368978, 2196.586123)"><g><path d="M 573.375 -136.453125 L 589.34375 -121.9375 C 550.632812 -70.644531 508.78125 -32.660156 463.78125 -7.984375 C 418.78125 16.691406 374.023438 29.03125 329.515625 29.03125 C 241.453125 29.03125 171.289062 -5.078125 119.03125 -73.296875 C 66.769531 -141.523438 40.640625 -234.671875 40.640625 -352.734375 C 40.640625 -442.734375 54.671875 -524.503906 82.734375 -598.046875 C 110.796875 -671.597656 149.503906 -729.175781 198.859375 -770.78125 C 248.210938 -812.394531 302.890625 -833.203125 362.890625 -833.203125 C 414.179688 -833.203125 458.9375 -817.957031 497.15625 -787.46875 C 535.382812 -756.988281 554.5 -717.796875 554.5 -669.890625 C 554.5 -621.992188 532.722656 -577.484375 489.171875 -536.359375 C 445.628906 -495.234375 391.679688 -462.8125 327.328125 -439.09375 C 262.972656 -415.382812 195.957031 -400.144531 126.28125 -393.375 C 125.3125 -379.832031 124.828125 -366.285156 124.828125 -352.734375 C 124.828125 -237.578125 142.242188 -148.785156 177.078125 -86.359375 C 211.921875 -23.941406 262.734375 7.265625 329.515625 7.265625 C 414.671875 7.265625 495.957031 -40.640625 573.375 -136.453125 Z M 362.890625 -811.4375 C 303.859375 -811.4375 252.082031 -772.242188 207.5625 -693.859375 C 163.050781 -615.472656 136.441406 -523.054688 127.734375 -416.609375 C 165.472656 -421.441406 202.972656 -429.90625 240.234375 -442 C 277.492188 -454.101562 314.023438 -470.070312 349.828125 -489.90625 C 385.628906 -509.75 414.660156 -535.148438 436.921875 -566.109375 C 459.179688 -597.078125 470.3125 -631.429688 470.3125 -669.171875 C 470.3125 -708.847656 460.390625 -742.476562 440.546875 -770.0625 C 420.710938 -797.644531 394.828125 -811.4375 362.890625 -811.4375 Z M 362.890625 -811.4375 "/></g></g></g><g fill="#bbd6d1" fill-opacity="1"><g transform="translate(4172.986568, 2196.586123)"><g><path d="M 129.1875 -692.40625 C 129.1875 -663.375 139.585938 -633.859375 160.390625 -603.859375 C 181.203125 -573.859375 207.09375 -547.003906 238.0625 -523.296875 C 269.03125 -499.585938 302.898438 -473.457031 339.671875 -444.90625 C 376.441406 -416.363281 410.3125 -389.269531 441.28125 -363.625 C 472.25 -337.976562 498.132812 -307.976562 518.9375 -273.625 C 539.738281 -239.269531 550.140625 -204.671875 550.140625 -169.828125 C 550.140625 -111.765625 529.578125 -64.101562 488.453125 -26.84375 C 447.328125 10.40625 390.957031 29.03125 319.34375 29.03125 C 282.570312 29.03125 238.054688 18.382812 185.796875 -2.90625 C 133.546875 -24.195312 101.613281 -34.84375 90 -34.84375 C 71.613281 -34.84375 62.421875 -23.226562 62.421875 0 L 52.25 0 L 52.25 -265.640625 L 62.421875 -265.640625 C 62.421875 -198.867188 90.96875 -136.691406 148.0625 -79.109375 C 205.15625 -21.523438 262.25 7.265625 319.34375 7.265625 C 367.726562 7.265625 404.257812 -6.523438 428.9375 -34.109375 C 453.613281 -61.691406 465.953125 -95.320312 465.953125 -135 C 465.953125 -164.03125 458.207031 -192.578125 442.71875 -220.640625 C 427.238281 -248.703125 407.160156 -274.101562 382.484375 -296.84375 C 357.804688 -319.582031 330.46875 -342.320312 300.46875 -365.0625 C 270.476562 -387.8125 240.484375 -410.3125 210.484375 -432.5625 C 180.484375 -454.820312 153.144531 -477.320312 128.46875 -500.0625 C 103.789062 -522.8125 83.707031 -547.734375 68.21875 -574.828125 C 52.738281 -601.921875 45 -629.5 45 -657.5625 C 45 -711.757812 66.53125 -754.582031 109.59375 -786.03125 C 152.65625 -817.476562 199.832031 -833.203125 251.125 -833.203125 C 288.863281 -833.203125 330.234375 -822.554688 375.234375 -801.265625 C 420.234375 -779.984375 451.925781 -769.34375 470.3125 -769.34375 C 487.726562 -769.34375 496.4375 -780.953125 496.4375 -804.171875 L 506.59375 -804.171875 C 506.59375 -802.234375 506.59375 -757.957031 506.59375 -671.34375 C 506.59375 -584.738281 506.59375 -540.46875 506.59375 -538.53125 L 494.984375 -538.53125 C 494.984375 -581.113281 484.820312 -623.207031 464.5 -664.8125 C 444.175781 -706.425781 414.898438 -741.265625 376.671875 -769.328125 C 338.453125 -797.398438 296.601562 -811.4375 251.125 -811.4375 C 216.28125 -811.4375 187.242188 -800.304688 164.015625 -778.046875 C 140.796875 -755.785156 129.1875 -727.238281 129.1875 -692.40625 Z M 129.1875 -692.40625 "/></g></g></g></g></g><g clip-path="url(#5a3d890cdb)"><path fill="#eee2d7" d="M 2544.253906 1029.613281 C 2544.476562 1031.660156 2544.742188 1033.695312 2545.050781 1035.730469 C 2545.363281 1037.765625 2545.714844 1039.789062 2546.109375 1041.808594 C 2546.503906 1043.828125 2546.941406 1045.835938 2547.421875 1047.835938 C 2547.902344 1049.835938 2548.425781 1051.824219 2548.988281 1053.800781 C 2549.550781 1055.78125 2550.15625 1057.746094 2550.804688 1059.695312 C 2551.453125 1061.648438 2552.140625 1063.585938 2552.871094 1065.507812 C 2553.597656 1067.433594 2554.367188 1069.339844 2555.179688 1071.230469 C 2555.988281 1073.121094 2556.839844 1074.992188 2557.726562 1076.847656 C 2558.617188 1078.703125 2559.542969 1080.535156 2560.511719 1082.351562 C 2561.476562 1084.167969 2562.484375 1085.960938 2563.527344 1087.734375 C 2564.566406 1089.507812 2565.648438 1091.257812 2566.765625 1092.984375 C 2567.882812 1094.710938 2569.035156 1096.414062 2570.222656 1098.09375 C 2571.410156 1099.769531 2572.632812 1101.421875 2573.894531 1103.050781 C 2575.152344 1104.675781 2576.445312 1106.277344 2577.769531 1107.847656 C 2579.097656 1109.417969 2580.457031 1110.960938 2581.847656 1112.476562 C 2583.238281 1113.992188 2584.660156 1115.476562 2586.117188 1116.929688 C 2587.570312 1118.382812 2589.054688 1119.808594 2590.570312 1121.199219 C 2592.082031 1122.589844 2593.625 1123.949219 2595.199219 1125.277344 C 2596.769531 1126.601562 2598.371094 1127.894531 2599.996094 1129.152344 C 2601.621094 1130.410156 2603.273438 1131.636719 2604.953125 1132.824219 C 2606.632812 1134.011719 2608.335938 1135.164062 2610.0625 1136.28125 C 2611.789062 1137.398438 2613.539062 1138.476562 2615.3125 1139.519531 C 2617.085938 1140.5625 2618.878906 1141.566406 2620.695312 1142.535156 C 2622.507812 1143.5 2624.34375 1144.429688 2626.199219 1145.320312 C 2628.054688 1146.207031 2629.925781 1147.058594 2631.816406 1147.867188 C 2633.707031 1148.675781 2635.613281 1149.445312 2637.535156 1150.175781 C 2639.460938 1150.90625 2641.398438 1151.59375 2643.347656 1152.242188 C 2645.300781 1152.890625 2647.265625 1153.496094 2649.242188 1154.058594 C 2651.222656 1154.625 2653.210938 1155.144531 2655.210938 1155.625 C 2657.210938 1156.105469 2659.21875 1156.542969 2661.238281 1156.9375 C 2663.253906 1157.332031 2665.28125 1157.6875 2667.316406 1157.996094 C 2669.347656 1158.304688 2671.386719 1158.570312 2673.429688 1158.792969 C 2713.085938 1163.136719 2764.269531 1165.945312 2830.347656 1165.945312 C 2764.269531 1165.945312 2713.085938 1168.753906 2673.429688 1173.101562 C 2671.386719 1173.324219 2669.347656 1173.589844 2667.316406 1173.898438 C 2665.28125 1174.210938 2663.253906 1174.5625 2661.238281 1174.957031 C 2659.21875 1175.351562 2657.210938 1175.789062 2655.210938 1176.269531 C 2653.210938 1176.75 2651.222656 1177.269531 2649.242188 1177.835938 C 2647.265625 1178.398438 2645.300781 1179.003906 2643.347656 1179.652344 C 2641.394531 1180.300781 2639.457031 1180.988281 2637.535156 1181.71875 C 2635.613281 1182.445312 2633.707031 1183.214844 2631.816406 1184.027344 C 2629.925781 1184.835938 2628.050781 1185.6875 2626.199219 1186.574219 C 2624.34375 1187.464844 2622.507812 1188.390625 2620.695312 1189.359375 C 2618.878906 1190.324219 2617.085938 1191.328125 2615.3125 1192.371094 C 2613.539062 1193.414062 2611.789062 1194.496094 2610.0625 1195.613281 C 2608.335938 1196.726562 2606.632812 1197.882812 2604.953125 1199.070312 C 2603.273438 1200.257812 2601.621094 1201.480469 2599.996094 1202.742188 C 2598.371094 1204 2596.769531 1205.292969 2595.199219 1206.617188 C 2593.625 1207.945312 2592.082031 1209.300781 2590.566406 1210.695312 C 2589.054688 1212.085938 2587.570312 1213.507812 2586.117188 1214.960938 C 2584.660156 1216.417969 2583.238281 1217.902344 2581.847656 1219.414062 C 2580.457031 1220.929688 2579.097656 1222.472656 2577.769531 1224.046875 C 2576.445312 1225.617188 2575.152344 1227.214844 2573.894531 1228.84375 C 2572.632812 1230.46875 2571.410156 1232.121094 2570.222656 1233.800781 C 2569.035156 1235.480469 2567.878906 1237.183594 2566.765625 1238.910156 C 2565.648438 1240.636719 2564.566406 1242.386719 2563.523438 1244.160156 C 2562.484375 1245.933594 2561.476562 1247.726562 2560.511719 1249.539062 C 2559.542969 1251.355469 2558.617188 1253.191406 2557.726562 1255.046875 C 2556.839844 1256.898438 2555.988281 1258.773438 2555.179688 1260.664062 C 2554.367188 1262.554688 2553.597656 1264.460938 2552.871094 1266.382812 C 2552.140625 1268.304688 2551.453125 1270.242188 2550.804688 1272.195312 C 2550.15625 1274.148438 2549.550781 1276.113281 2548.988281 1278.089844 C 2548.421875 1280.070312 2547.902344 1282.058594 2547.421875 1284.058594 C 2546.941406 1286.058594 2546.503906 1288.066406 2546.109375 1290.085938 C 2545.714844 1292.101562 2545.363281 1294.128906 2545.050781 1296.164062 C 2544.742188 1298.195312 2544.476562 1300.234375 2544.253906 1302.277344 C 2539.90625 1341.933594 2537.097656 1393.117188 2537.097656 1459.195312 C 2537.097656 1393.117188 2534.289062 1341.933594 2529.945312 1302.277344 C 2529.722656 1300.234375 2529.457031 1298.195312 2529.148438 1296.164062 C 2528.839844 1294.128906 2528.484375 1292.101562 2528.089844 1290.085938 C 2527.695312 1288.066406 2527.257812 1286.058594 2526.777344 1284.058594 C 2526.296875 1282.058594 2525.777344 1280.070312 2525.210938 1278.089844 C 2524.648438 1276.113281 2524.042969 1274.148438 2523.394531 1272.195312 C 2522.746094 1270.246094 2522.058594 1268.304688 2521.328125 1266.382812 C 2520.597656 1264.460938 2519.828125 1262.554688 2519.019531 1260.664062 C 2518.210938 1258.773438 2517.359375 1256.898438 2516.472656 1255.046875 C 2515.582031 1253.191406 2514.652344 1251.355469 2513.6875 1249.542969 C 2512.71875 1247.726562 2511.714844 1245.933594 2510.671875 1244.160156 C 2509.628906 1242.386719 2508.550781 1240.636719 2507.433594 1238.910156 C 2506.316406 1237.183594 2505.164062 1235.480469 2503.976562 1233.800781 C 2502.789062 1232.121094 2501.5625 1230.46875 2500.304688 1228.84375 C 2499.046875 1227.21875 2497.753906 1225.617188 2496.429688 1224.046875 C 2495.101562 1222.472656 2493.742188 1220.929688 2492.351562 1219.417969 C 2490.960938 1217.902344 2489.535156 1216.417969 2488.082031 1214.964844 C 2486.628906 1213.507812 2485.144531 1212.085938 2483.628906 1210.695312 C 2482.113281 1209.304688 2480.570312 1207.945312 2479 1206.617188 C 2477.429688 1205.292969 2475.828125 1204 2474.203125 1202.742188 C 2472.574219 1201.480469 2470.921875 1200.257812 2469.246094 1199.070312 C 2467.566406 1197.882812 2465.863281 1196.730469 2464.136719 1195.613281 C 2462.410156 1194.496094 2460.660156 1193.414062 2458.886719 1192.375 C 2457.113281 1191.332031 2455.320312 1190.324219 2453.503906 1189.359375 C 2451.6875 1188.390625 2449.855469 1187.464844 2448 1186.574219 C 2446.144531 1185.6875 2444.273438 1184.835938 2442.382812 1184.027344 C 2440.492188 1183.214844 2438.585938 1182.445312 2436.660156 1181.71875 C 2434.738281 1180.988281 2432.800781 1180.300781 2430.847656 1179.652344 C 2428.898438 1179.003906 2426.933594 1178.398438 2424.953125 1177.835938 C 2422.976562 1177.273438 2420.988281 1176.75 2418.988281 1176.269531 C 2416.988281 1175.789062 2414.980469 1175.351562 2412.960938 1174.957031 C 2410.941406 1174.5625 2408.917969 1174.210938 2406.882812 1173.898438 C 2404.851562 1173.589844 2402.8125 1173.324219 2400.765625 1173.101562 C 2361.113281 1168.753906 2309.925781 1165.945312 2243.851562 1165.945312 C 2309.925781 1165.945312 2361.113281 1163.136719 2400.765625 1158.792969 C 2402.8125 1158.570312 2404.851562 1158.304688 2406.882812 1157.996094 C 2408.917969 1157.6875 2410.941406 1157.332031 2412.960938 1156.9375 C 2414.980469 1156.542969 2416.988281 1156.105469 2418.988281 1155.625 C 2420.988281 1155.144531 2422.976562 1154.621094 2424.953125 1154.058594 C 2426.933594 1153.496094 2428.898438 1152.886719 2430.847656 1152.242188 C 2432.800781 1151.59375 2434.738281 1150.90625 2436.660156 1150.175781 C 2438.585938 1149.445312 2440.492188 1148.675781 2442.382812 1147.867188 C 2444.273438 1147.058594 2446.144531 1146.207031 2448 1145.320312 C 2449.855469 1144.429688 2451.6875 1143.5 2453.503906 1142.535156 C 2455.320312 1141.566406 2457.113281 1140.5625 2458.886719 1139.519531 C 2460.660156 1138.476562 2462.410156 1137.398438 2464.136719 1136.28125 C 2465.863281 1135.164062 2467.566406 1134.011719 2469.246094 1132.824219 C 2470.921875 1131.636719 2472.574219 1130.410156 2474.203125 1129.152344 C 2475.828125 1127.894531 2477.425781 1126.601562 2479 1125.273438 C 2480.570312 1123.949219 2482.113281 1122.589844 2483.628906 1121.199219 C 2485.144531 1119.808594 2486.628906 1118.382812 2488.082031 1116.929688 C 2489.535156 1115.476562 2490.960938 1113.992188 2492.351562 1112.476562 C 2493.742188 1110.960938 2495.101562 1109.417969 2496.429688 1107.847656 C 2497.753906 1106.273438 2499.046875 1104.675781 2500.304688 1103.050781 C 2501.5625 1101.421875 2502.789062 1099.769531 2503.976562 1098.09375 C 2505.164062 1096.414062 2506.316406 1094.710938 2507.433594 1092.984375 C 2508.550781 1091.257812 2509.628906 1089.507812 2510.671875 1087.734375 C 2511.714844 1085.960938 2512.71875 1084.167969 2513.6875 1082.351562 C 2514.652344 1080.535156 2515.582031 1078.703125 2516.472656 1076.847656 C 2517.359375 1074.992188 2518.210938 1073.121094 2519.019531 1071.230469 C 2519.828125 1069.339844 2520.597656 1067.433594 2521.328125 1065.507812 C 2522.058594 1063.585938 2522.746094 1061.648438 2523.394531 1059.695312 C 2524.039062 1057.746094 2524.648438 1055.78125 2525.210938 1053.800781 C 2525.773438 1051.824219 2526.296875 1049.835938 2526.777344 1047.835938 C 2527.257812 1045.835938 2527.695312 1043.828125 2528.089844 1041.808594 C 2528.484375 1039.789062 2528.839844 1037.765625 2529.148438 1035.730469 C 2529.457031 1033.695312 2529.722656 1031.660156 2529.945312 1029.613281 C 2534.289062 989.960938 2537.097656 938.777344 2537.097656 872.699219 C 2537.097656 938.773438 2539.90625 989.960938 2544.253906 1029.613281 Z M 2544.253906 1029.613281 " fill-opacity="1" fill-rule="nonzero"/></g><g transform="matrix(1, 0, 0, 1, 561, 2819)"><g clip-path="url(#506f3dafff)"><g fill="#bbd6d1" fill-opacity="1"><g transform="translate(4.335358, 359.826011)"><g><path d="M 141.015625 -262.53125 C 174.523438 -262.53125 200.78125 -254.53125 219.78125 -238.53125 C 238.78125 -222.53125 248.28125 -200.523438 248.28125 -172.515625 C 248.28125 -144.515625 238.78125 -122.578125 219.78125 -106.703125 C 200.78125 -90.828125 174.523438 -82.890625 141.015625 -82.890625 L 70.515625 -82.890625 L 70.515625 0 L 42.75 0 L 42.75 -262.53125 Z M 140.265625 -107.265625 C 166.265625 -107.265625 186.140625 -112.953125 199.890625 -124.328125 C 213.648438 -135.703125 220.53125 -151.765625 220.53125 -172.515625 C 220.53125 -193.773438 213.648438 -210.09375 199.890625 -221.46875 C 186.140625 -232.84375 166.265625 -238.53125 140.265625 -238.53125 L 70.515625 -238.53125 L 70.515625 -107.265625 Z M 140.265625 -107.265625 "/></g></g></g><g fill="#bbd6d1" fill-opacity="1"><g transform="translate(573.643714, 359.826011)"><g><path d="M 115.140625 2.25 C 95.640625 2.25 76.945312 -0.875 59.0625 -7.125 C 41.1875 -13.375 27.375 -21.625 17.625 -31.875 L 28.5 -53.25 C 38 -43.75 50.625 -36.0625 66.375 -30.1875 C 82.132812 -24.3125 98.390625 -21.375 115.140625 -21.375 C 138.640625 -21.375 156.265625 -25.6875 168.015625 -34.3125 C 179.765625 -42.9375 185.640625 -54.128906 185.640625 -67.890625 C 185.640625 -78.390625 182.453125 -86.765625 176.078125 -93.015625 C 169.703125 -99.265625 161.890625 -104.078125 152.640625 -107.453125 C 143.390625 -110.828125 130.515625 -114.515625 114.015625 -118.515625 C 94.265625 -123.515625 78.507812 -128.328125 66.75 -132.953125 C 55 -137.578125 44.9375 -144.640625 36.5625 -154.140625 C 28.1875 -163.640625 24 -176.519531 24 -192.78125 C 24 -206.03125 27.5 -218.09375 34.5 -228.96875 C 41.5 -239.84375 52.25 -248.53125 66.75 -255.03125 C 81.257812 -261.53125 99.265625 -264.78125 120.765625 -264.78125 C 135.765625 -264.78125 150.453125 -262.71875 164.828125 -258.59375 C 179.203125 -254.46875 191.644531 -248.78125 202.15625 -241.53125 L 192.78125 -219.40625 C 181.769531 -226.65625 170.015625 -232.09375 157.515625 -235.71875 C 145.015625 -239.34375 132.765625 -241.15625 120.765625 -241.15625 C 97.765625 -241.15625 80.445312 -236.71875 68.8125 -227.84375 C 57.1875 -218.96875 51.375 -207.53125 51.375 -193.53125 C 51.375 -183.019531 54.5625 -174.578125 60.9375 -168.203125 C 67.320312 -161.828125 75.328125 -156.953125 84.953125 -153.578125 C 94.578125 -150.203125 107.515625 -146.515625 123.765625 -142.515625 C 143.015625 -137.765625 158.578125 -133.078125 170.453125 -128.453125 C 182.335938 -123.828125 192.40625 -116.828125 200.65625 -107.453125 C 208.90625 -98.078125 213.03125 -85.390625 213.03125 -69.390625 C 213.03125 -56.128906 209.46875 -44.0625 202.34375 -33.1875 C 195.21875 -22.3125 184.273438 -13.6875 169.515625 -7.3125 C 154.765625 -0.9375 136.640625 2.25 115.140625 2.25 Z M 115.140625 2.25 "/></g></g></g><g fill="#bbd6d1" fill-opacity="1"><g transform="translate(1104.330371, 359.826011)"><g><path d="M 42.75 -262.53125 L 70.515625 -262.53125 L 70.515625 0 L 42.75 0 Z M 42.75 -262.53125 "/></g></g></g><g fill="#bbd6d1" fill-opacity="1"><g transform="translate(1517.652157, 359.826011)"><g><path d="M 156.765625 2.25 C 130.765625 2.25 107.320312 -3.5 86.4375 -15 C 65.5625 -26.5 49.1875 -42.4375 37.3125 -62.8125 C 25.4375 -83.195312 19.5 -106.015625 19.5 -131.265625 C 19.5 -156.515625 25.4375 -179.328125 37.3125 -199.703125 C 49.1875 -220.085938 65.625 -236.03125 86.625 -247.53125 C 107.632812 -259.03125 131.140625 -264.78125 157.140625 -264.78125 C 176.640625 -264.78125 194.640625 -261.53125 211.140625 -255.03125 C 227.648438 -248.53125 241.65625 -239.03125 253.15625 -226.53125 L 235.53125 -208.90625 C 215.03125 -229.65625 189.148438 -240.03125 157.890625 -240.03125 C 137.140625 -240.03125 118.265625 -235.28125 101.265625 -225.78125 C 84.265625 -216.28125 70.945312 -203.273438 61.3125 -186.765625 C 51.6875 -170.265625 46.875 -151.765625 46.875 -131.265625 C 46.875 -110.765625 51.6875 -92.257812 61.3125 -75.75 C 70.945312 -59.25 84.265625 -46.25 101.265625 -36.75 C 118.265625 -27.25 137.140625 -22.5 157.890625 -22.5 C 189.398438 -22.5 215.28125 -33 235.53125 -54 L 253.15625 -36.375 C 241.65625 -23.875 227.585938 -14.3125 210.953125 -7.6875 C 194.328125 -1.0625 176.265625 2.25 156.765625 2.25 Z M 156.765625 2.25 "/></g></g></g><g fill="#bbd6d1" fill-opacity="1"><g transform="translate(2081.709815, 359.826011)"><g><path d="M 157.515625 2.25 C 131.515625 2.25 107.945312 -3.5625 86.8125 -15.1875 C 65.6875 -26.8125 49.1875 -42.75 37.3125 -63 C 25.4375 -83.257812 19.5 -106.015625 19.5 -131.265625 C 19.5 -156.515625 25.4375 -179.265625 37.3125 -199.515625 C 49.1875 -219.773438 65.6875 -235.71875 86.8125 -247.34375 C 107.945312 -258.96875 131.515625 -264.78125 157.515625 -264.78125 C 183.523438 -264.78125 206.96875 -259.03125 227.84375 -247.53125 C 248.71875 -236.03125 265.15625 -220.085938 277.15625 -199.703125 C 289.15625 -179.328125 295.15625 -156.515625 295.15625 -131.265625 C 295.15625 -106.015625 289.15625 -83.195312 277.15625 -62.8125 C 265.15625 -42.4375 248.71875 -26.5 227.84375 -15 C 206.96875 -3.5 183.523438 2.25 157.515625 2.25 Z M 157.515625 -22.5 C 178.273438 -22.5 197.03125 -27.1875 213.78125 -36.5625 C 230.53125 -45.9375 243.65625 -58.9375 253.15625 -75.5625 C 262.65625 -92.195312 267.40625 -110.765625 267.40625 -131.265625 C 267.40625 -151.765625 262.65625 -170.328125 253.15625 -186.953125 C 243.65625 -203.585938 230.53125 -216.59375 213.78125 -225.96875 C 197.03125 -235.34375 178.273438 -240.03125 157.515625 -240.03125 C 136.765625 -240.03125 117.953125 -235.34375 101.078125 -225.96875 C 84.203125 -216.59375 70.945312 -203.585938 61.3125 -186.953125 C 51.6875 -170.328125 46.875 -151.765625 46.875 -131.265625 C 46.875 -110.765625 51.6875 -92.195312 61.3125 -75.5625 C 70.945312 -58.9375 84.203125 -45.9375 101.078125 -36.5625 C 117.953125 -27.1875 136.765625 -22.5 157.515625 -22.5 Z M 184.515625 -330.421875 L 220.15625 -330.421875 L 159.390625 -283.90625 L 133.140625 -283.90625 Z M 184.515625 -330.421875 "/></g></g></g><g fill="#bbd6d1" fill-opacity="1"><g transform="translate(2696.389236, 359.826011)"><g><path d="M 42.75 -262.53125 L 70.515625 -262.53125 L 70.515625 -24 L 217.53125 -24 L 217.53125 0 L 42.75 0 Z M 42.75 -262.53125 "/></g></g></g><g fill="#bbd6d1" fill-opacity="1"><g transform="translate(3212.076089, 359.826011)"><g><path d="M 157.515625 2.25 C 131.515625 2.25 107.945312 -3.5625 86.8125 -15.1875 C 65.6875 -26.8125 49.1875 -42.75 37.3125 -63 C 25.4375 -83.257812 19.5 -106.015625 19.5 -131.265625 C 19.5 -156.515625 25.4375 -179.265625 37.3125 -199.515625 C 49.1875 -219.773438 65.6875 -235.71875 86.8125 -247.34375 C 107.945312 -258.96875 131.515625 -264.78125 157.515625 -264.78125 C 183.523438 -264.78125 206.96875 -259.03125 227.84375 -247.53125 C 248.71875 -236.03125 265.15625 -220.085938 277.15625 -199.703125 C 289.15625 -179.328125 295.15625 -156.515625 295.15625 -131.265625 C 295.15625 -106.015625 289.15625 -83.195312 277.15625 -62.8125 C 265.15625 -42.4375 248.71875 -26.5 227.84375 -15 C 206.96875 -3.5 183.523438 2.25 157.515625 2.25 Z M 157.515625 -22.5 C 178.273438 -22.5 197.03125 -27.1875 213.78125 -36.5625 C 230.53125 -45.9375 243.65625 -58.9375 253.15625 -75.5625 C 262.65625 -92.195312 267.40625 -110.765625 267.40625 -131.265625 C 267.40625 -151.765625 262.65625 -170.328125 253.15625 -186.953125 C 243.65625 -203.585938 230.53125 -216.59375 213.78125 -225.96875 C 197.03125 -235.34375 178.273438 -240.03125 157.515625 -240.03125 C 136.765625 -240.03125 117.953125 -235.34375 101.078125 -225.96875 C 84.203125 -216.59375 70.945312 -203.585938 61.3125 -186.953125 C 51.6875 -170.328125 46.875 -151.765625 46.875 -131.265625 C 46.875 -110.765625 51.6875 -92.195312 61.3125 -75.5625 C 70.945312 -58.9375 84.203125 -45.9375 101.078125 -36.5625 C 117.953125 -27.1875 136.765625 -22.5 157.515625 -22.5 Z M 157.515625 -22.5 "/></g></g></g><g fill="#bbd6d1" fill-opacity="1"><g transform="translate(3826.755733, 359.826011)"><g><path d="M 227.65625 -131.265625 L 254.28125 -131.265625 L 254.28125 -31.125 C 242.03125 -20.375 227.523438 -12.125 210.765625 -6.375 C 194.015625 -0.625 176.390625 2.25 157.890625 2.25 C 131.640625 2.25 108.007812 -3.5 87 -15 C 66 -26.5 49.5 -42.4375 37.5 -62.8125 C 25.5 -83.195312 19.5 -106.015625 19.5 -131.265625 C 19.5 -156.515625 25.5 -179.328125 37.5 -199.703125 C 49.5 -220.085938 66 -236.03125 87 -247.53125 C 108.007812 -259.03125 131.765625 -264.78125 158.265625 -264.78125 C 178.273438 -264.78125 196.65625 -261.59375 213.40625 -255.21875 C 230.15625 -248.84375 244.28125 -239.40625 255.78125 -226.90625 L 238.53125 -209.28125 C 217.78125 -229.78125 191.398438 -240.03125 159.390625 -240.03125 C 138.140625 -240.03125 118.953125 -235.34375 101.828125 -225.96875 C 84.703125 -216.59375 71.257812 -203.585938 61.5 -186.953125 C 51.75 -170.328125 46.875 -151.765625 46.875 -131.265625 C 46.875 -110.765625 51.75 -92.257812 61.5 -75.75 C 71.257812 -59.25 84.640625 -46.25 101.640625 -36.75 C 118.640625 -27.25 137.765625 -22.5 159.015625 -22.5 C 186.023438 -22.5 208.90625 -29.25 227.65625 -42.75 Z M 227.65625 -131.265625 "/></g></g></g><g fill="#bbd6d1" fill-opacity="1"><g transform="translate(4416.687126, 359.826011)"><g><path d="M 207.40625 -70.140625 L 61.125 -70.140625 L 29.625 0 L 0.75 0 L 120.765625 -262.53125 L 148.140625 -262.53125 L 268.15625 0 L 238.90625 0 Z M 197.28125 -92.640625 L 134.265625 -233.65625 L 71.265625 -92.640625 Z M 197.28125 -92.640625 "/></g></g></g></g></g></svg>