<?xml version="1.0"?>
<svg width="7956.75" height="1712.9999320000002" xmlns="http://www.w3.org/2000/svg" xmlns:svg="http://www.w3.org/2000/svg" preserveAspectRatio="xMidYMid meet" version="1.0">
 <defs>
  <g id="svg_1"/>
 </defs>
 <g class="layer">
  <title>Layer 1</title>
  <g fill="#000000" id="svg_2">
   <g id="svg_3" transform="translate(199.198 1026.62)">
    <g id="svg_4">
     <path d="m61.53,17.08c-15.18,-1.28 -32.26,-4.44 -51.23,-9.5c-18.97,-5.06 -35.25,-9.63 -48.85,-13.74c-13.59,-4.11 -26.4,-7.59 -38.42,-10.43c-12.01,-2.86 -21.34,-3.02 -27.98,-0.49c-6.64,2.53 -9.96,8.23 -9.96,17.08l-6.64,0l0,-173.59l6.64,0c0,34.78 14.23,69.25 42.69,103.4c28.46,34.15 65.13,56.92 110.03,68.3c17.07,4.43 34.15,6.64 51.22,6.64c1.91,0 3.49,0 4.75,0c39.21,0 70.19,-11.7 92.95,-35.09c22.77,-23.41 34.16,-51.24 34.16,-83.49c0,-19.6 -6.32,-40.47 -18.97,-62.59c-12.65,-22.13 -29.56,-43.01 -50.75,-62.61c-21.19,-19.6 -41.74,-36.99 -61.67,-52.17c-19.92,-15.18 -40.62,-29.41 -62.12,-42.69c-52.49,-30.99 -90.43,-61.66 -113.83,-92.02c-23.4,-30.35 -35.1,-66.39 -35.1,-108.14c0,-45.53 14.54,-80.62 43.63,-105.28c29.09,-24.66 64.83,-37 107.2,-37l0.95,0c1.9,0 3.79,0 5.69,0c15.8,0.64 33.82,3.64 54.06,9.02c20.24,5.37 37.95,10.75 53.13,16.12c15.18,5.38 29.56,9.81 43.16,13.28c13.59,3.48 24.02,3.8 31.29,0.96c7.27,-2.85 10.91,-9.66 10.91,-20.41l6.64,0l0,173.59l-6.64,0c0,-22.13 -7.59,-45.37 -22.77,-69.71c-15.16,-24.35 -35.24,-46 -60.22,-64.97c-24.98,-18.98 -50.75,-31.95 -77.31,-38.91c-9.49,-2.52 -18.66,-4.1 -27.51,-4.73l-10.43,0c-19.6,0 -37.15,2.85 -52.65,8.54c-15.49,5.69 -27.67,13.44 -36.52,23.24c-8.85,9.8 -15.49,20.4 -19.92,31.78c-4.43,11.37 -6.64,23.07 -6.64,35.08c0,12.02 1.27,23.4 3.8,34.15c2.53,10.75 5.69,20.24 9.48,28.46c3.79,8.21 9.32,16.75 16.6,25.61c7.28,8.85 13.76,16.28 19.45,22.29c5.69,6.01 13.58,12.81 23.7,20.41c10.13,7.58 18.51,13.59 25.14,18.01c6.65,4.43 15.97,10.6 27.99,18.5c12.02,7.9 20.87,13.75 26.56,17.55c6.96,5.06 19.13,13.43 36.51,25.13c17.4,11.7 29.89,20.23 37.47,25.61c7.6,5.37 18.51,13.43 32.74,24.18c14.22,10.75 24.81,19.61 31.76,26.57c6.96,6.96 15.34,16.13 25.14,27.51c9.8,11.39 16.92,22.14 21.35,32.25c4.42,10.12 8.22,21.81 11.37,35.09c3.17,13.29 4.75,26.89 4.75,40.8c0,46.79 -16.29,85.21 -48.86,115.25c-32.56,30.03 -77.61,45.05 -135.15,45.05c-1.9,0 -4.11,0 -6.64,0c-0.64,0 -1.27,0 -1.89,0c-1.91,-0.64 -3.81,-0.95 -5.71,-0.95c0,0 -0.63,0 -1.9,0c-1.27,0 -2.53,0 -3.78,0c-1.9,-0.63 -2.85,-0.94 -2.85,-0.94zm0,0" id="svg_5"/>
    </g>
   </g>
  </g>
  <g fill="#000000" id="svg_6">
   <g id="svg_7" transform="translate(681.067 1026.62)">
    <g id="svg_8">
     <path d="m115.59,-544.47c72.1,0 130.43,27.04 175.02,81.11c44.58,54.06 66.87,120.93 66.87,200.61c0,79.68 -22.29,146.55 -66.87,200.62c-44.59,54.07 -102.92,81.1 -175.02,81.1c-72.08,0 -130.41,-27.03 -175,-81.1c-44.58,-54.07 -66.87,-120.94 -66.87,-200.62c0,-38.57 5.85,-75.09 17.55,-109.55c11.69,-34.47 27.82,-64.34 48.37,-89.64c20.55,-25.3 46,-45.38 76.36,-60.23c30.35,-14.87 63.55,-22.3 99.59,-22.3zm-131.37,474.75c37,49.65 80.79,74.47 131.37,74.47c50.6,0 94.39,-24.82 131.38,-74.47c37,-49.64 55.5,-113.99 55.5,-193.03c0,-74.63 -18.18,-137.86 -54.55,-189.72c-36.37,-51.85 -80.47,-77.78 -132.33,-77.78c-51.85,0 -95.96,25.93 -132.32,77.78c-36.36,51.86 -54.54,115.09 -54.54,189.72c0,79.04 18.5,143.39 55.49,193.03zm0,0" id="svg_9"/>
    </g>
   </g>
  </g>
  <g fill="#000000" id="svg_10">
   <g id="svg_11" transform="translate(1253.05 1026.62)">
    <g id="svg_12">
     <path d="m89.03,-676.33c25.3,0 66.41,8.54 123.31,25.61l0,81.58c-12.01,-24.03 -28.76,-45.53 -50.26,-64.5c-21.5,-18.97 -45.85,-28.45 -73.05,-28.45c-36.68,0 -64.66,10.75 -83.95,32.25c-19.28,21.5 -30.19,56.28 -32.72,104.34l116.67,0l0,14.22l-116.67,0c0,2.53 0,4.74 0,6.64l0,350.03c0,24.66 0.47,44.42 1.42,59.28c0.95,14.86 3.16,29.87 6.64,45.05c3.48,15.18 9.17,26.24 17.08,33.2c7.91,6.96 17.86,10.44 29.88,10.44l0,6.64l-165.05,0l0,-6.64c12.02,0 21.97,-3.48 29.87,-10.44c7.91,-6.96 13.6,-18.02 17.08,-33.2c3.48,-15.18 5.69,-30.19 6.64,-45.05c0.95,-14.86 1.42,-34.62 1.42,-59.28l0,-350.03c0,-2.52 0,-4.74 0,-6.64l-43.62,0l0,-14.22l44.58,0c2.53,-55.66 18.02,-94.71 46.48,-117.16c28.46,-22.44 69.88,-33.67 124.25,-33.67zm0,0" id="svg_13"/>
    </g>
   </g>
  </g>
  <g fill="#000000" id="svg_14">
   <g id="svg_15" transform="translate(1530.98 1026.62)">
    <g id="svg_16">
     <path d="m-26.69,-172.64c0,24.03 0.48,43.48 1.42,58.34c0.95,14.86 3.16,29.87 6.65,45.05c3.47,15.18 9.17,26.25 17.07,33.2c7.91,6.96 17.87,10.44 29.88,10.44l0,6.64l-165.05,0l0,-6.64c12.01,0 21.97,-3.48 29.88,-10.44c7.9,-6.95 13.59,-18.02 17.07,-33.2c3.48,-15.18 5.7,-30.19 6.65,-45.05c0.94,-14.86 1.42,-34.31 1.42,-58.34l0,-197.3c0,-24.03 -0.48,-43.47 -1.42,-58.33c-0.95,-14.86 -3.17,-29.72 -6.65,-44.59c-3.48,-14.86 -9.17,-25.77 -17.07,-32.72c-7.91,-6.96 -17.87,-10.44 -29.88,-10.44l0,-6.64l110.03,-21.81l0,371.83zm50.28,-516.02l-141.34,81.58l-15.17,-17.08l107.19,-120.47l49.32,55.97zm0,0" id="svg_17"/>
    </g>
   </g>
  </g>
  <g fill="#000000" id="svg_18">
   <g id="svg_19" transform="translate(1760.53 1026.62)">
    <g id="svg_20">
     <path d="m79.55,-544.47c16.44,0 32.41,2.06 47.9,6.17c15.49,4.11 30.67,10.75 45.53,19.91c14.87,9.17 26.88,22.92 36.05,41.26c9.17,18.34 13.75,39.84 13.75,64.5l0,412.63c-12.65,-7.58 -30.98,-19.28 -55.01,-35.09c-37.32,36.04 -78.74,54.06 -124.27,54.06c-110.66,0 -165.98,-58.18 -165.98,-174.53c0,-129.64 96.43,-221.33 289.29,-275.08c-3.79,-66.41 -32.88,-99.61 -87.26,-99.61c-36.05,0 -71.46,13.44 -106.24,40.31c-34.78,26.88 -59.12,56.45 -73.03,88.71l0,-81.58c65.13,-41.1 124.88,-61.66 179.27,-61.66zm88.22,494.19l0,-362.35c0,-1.89 0,-4.1 0,-6.64c-30.36,9.5 -58.82,21.83 -85.38,37c-26.55,15.18 -51.37,33.52 -74.45,55.02c-23.09,21.5 -41.42,46.95 -55.02,76.36c-13.59,29.41 -20.39,61.18 -20.39,95.33c0,53.11 10.43,93.11 31.3,120c20.86,26.87 47.42,40.31 79.67,40.31c48.7,0 90.12,-18.34 124.27,-55.03zm0,0" id="svg_21"/>
    </g>
   </g>
  </g>
  <g fill="#000000" id="svg_22">
   <g id="svg_23" transform="translate(199.198 1526.02)">
    <g id="svg_24">
     <path d="m-18.41,-244.98c31.26,0 55.76,7.46 73.49,22.4c17.74,14.93 26.61,35.45 26.61,61.58c0,26.14 -8.87,46.62 -26.61,61.44c-17.73,14.81 -42.23,22.22 -73.49,22.22l-65.79,0l0,77.34l-25.91,0l0,-244.98l91.7,0zm-0.7,144.89c24.27,0 42.82,-5.31 55.66,-15.93c12.83,-10.61 19.25,-25.61 19.25,-44.98c0,-19.82 -6.42,-35.04 -19.25,-45.66c-12.84,-10.62 -31.39,-15.93 -55.66,-15.93l-65.09,0l0,122.5l65.09,0zm0,0" id="svg_25"/>
    </g>
   </g>
  </g>
  <g fill="#000000" id="svg_26">
   <g id="svg_27" transform="translate(508.235 1526.02)">
    <g id="svg_28">
     <path d="m43.55,-65.45l-136.5,0l-29.39,65.45l-26.96,0l111.99,-244.98l25.56,0l111.98,244.98l-27.29,0l-29.39,-65.45zm-9.46,-21l-58.79,-131.6l-58.8,131.6l117.59,0zm0,0" id="svg_29"/>
    </g>
   </g>
  </g>
  <g fill="#000000" id="svg_30">
   <g id="svg_31" transform="translate(832.671 1526.02)">
    <g id="svg_32">
     <path d="m57.19,0l-56,-78.75c-6.3,0.7 -12.83,1.05 -19.6,1.05l-65.79,0l0,77.7l-25.91,0l0,-244.98l91.7,0c31.26,0 55.76,7.46 73.49,22.4c17.74,14.93 26.61,35.45 26.61,61.58c0,19.14 -4.85,35.3 -14.53,48.48c-9.68,13.18 -23.5,22.69 -41.47,28.52l59.86,84l-28.36,0zm-76.3,-99.75c24.27,0 42.82,-5.36 55.66,-16.09c12.83,-10.73 19.25,-25.79 19.25,-45.16c0,-19.82 -6.42,-35.04 -19.25,-45.66c-12.84,-10.62 -31.39,-15.93 -55.66,-15.93l-65.09,0l0,122.84l65.09,0zm0,0" id="svg_33"/>
    </g>
   </g>
  </g>
  <g fill="#000000" id="svg_34">
   <g id="svg_35" transform="translate(1159.21 1526.02)">
    <g id="svg_36">
     <path d="m63.14,-22.41l0,22.41l-173.25,0l0,-244.98l168,0l0,22.39l-142.09,0l0,87.15l126.68,0l0,22.05l-126.68,0l0,90.98l147.34,0zm0,0" id="svg_37"/>
    </g>
   </g>
  </g>
  <g fill="#000000" id="svg_38">
   <g id="svg_39" transform="translate(1466.84 1526.02)">
    <g id="svg_40">
     <path d="m-110.11,-244.98l99.75,0c25.9,0 48.76,5.19 68.59,15.57c19.84,10.38 35.24,24.84 46.21,43.39c10.97,18.56 16.45,39.73 16.45,63.52c0,23.8 -5.48,44.98 -16.45,63.53c-10.97,18.54 -26.37,33.01 -46.21,43.39c-19.83,10.39 -42.69,15.58 -68.59,15.58l-99.75,0l0,-244.98zm98.36,222.57c21.46,0 40.23,-4.25 56.33,-12.76c16.1,-8.52 28.58,-20.3 37.45,-35.35c8.88,-15.05 13.31,-32.37 13.31,-51.98c0,-19.59 -4.43,-36.91 -13.31,-51.97c-8.87,-15.05 -21.35,-26.83 -37.45,-35.34c-16.1,-8.52 -34.87,-12.78 -56.33,-12.78l-72.45,0l0,200.18l72.45,0zm0,0" id="svg_41"/>
    </g>
   </g>
  </g>
  <g fill="#000000" id="svg_42">
   <g id="svg_43" transform="translate(1829.43 1526.02)">
    <g id="svg_44">
     <path d="m63.14,-22.41l0,22.41l-173.25,0l0,-244.98l168,0l0,22.39l-142.09,0l0,87.15l126.68,0l0,22.05l-126.68,0l0,90.98l147.34,0zm0,0" id="svg_45"/>
    </g>
   </g>
  </g>
  <g fill="#000000" id="svg_46">
   <g id="svg_47" transform="translate(2137.06 1526.02)">
    <g id="svg_48">
     <path d="m-42.56,2.09c-18.2,0 -35.64,-2.91 -52.33,-8.75c-16.68,-5.83 -29.56,-13.53 -38.66,-23.09l10.14,-19.95c8.87,8.87 20.65,16.05 35.35,21.53c14.7,5.48 29.87,8.22 45.5,8.22c21.94,0 38.39,-4.02 49.36,-12.07c10.97,-8.05 16.45,-18.49 16.45,-31.32c0,-9.8 -2.98,-17.62 -8.94,-23.46c-5.95,-5.83 -13.24,-10.32 -21.87,-13.47c-8.63,-3.15 -20.64,-6.59 -36.05,-10.32c-18.43,-4.67 -33.12,-9.16 -44.09,-13.47c-10.97,-4.32 -20.36,-10.92 -28.17,-19.78c-7.82,-8.87 -11.72,-20.88 -11.72,-36.05c0,-12.36 3.26,-23.62 9.79,-33.77c6.53,-10.15 16.57,-18.26 30.1,-24.32c13.53,-6.07 30.33,-9.11 50.39,-9.11c14,0 27.7,1.93 41.12,5.78c13.42,3.84 25.03,9.15 34.83,15.92l-8.75,20.66c-10.26,-6.77 -21.23,-11.85 -32.89,-15.24c-11.67,-3.38 -23.11,-5.08 -34.31,-5.08c-21.46,0 -37.62,4.15 -48.47,12.44c-10.84,8.28 -16.27,18.95 -16.27,32.02c0,9.8 2.98,17.68 8.93,23.62c5.94,5.95 13.41,10.5 22.39,13.66c8.98,3.15 21.06,6.58 36.23,10.31c17.96,4.44 32.48,8.82 43.56,13.14c11.08,4.31 20.48,10.84 28.17,19.59c7.71,8.75 11.57,20.59 11.57,35.52c0,12.37 -3.33,23.62 -9.99,33.78c-6.65,10.15 -16.85,18.2 -30.62,24.14c-13.76,5.95 -30.68,8.92 -50.75,8.92zm0,0" id="svg_49"/>
    </g>
   </g>
  </g>
  <g fill="#000000" id="svg_50">
   <g id="svg_51" transform="translate(2425.801214, 1526.024026)">
    <g id="svg_52"/>
   </g>
  </g>
  <g fill="#000000" id="svg_53">
   <g id="svg_54" transform="translate(2590.99 1526.02)">
    <g id="svg_55">
     <path d="m144.34,-244.98l0,244.98l-24.86,0l0,-195.98l-96.23,164.82l-12.25,0l-96.25,-163.78l0,194.94l-24.86,0l0,-244.98l21.36,0l106.39,181.64l105.34,-181.64l21.36,0zm0,0" id="svg_56"/>
    </g>
   </g>
  </g>
  <g fill="#000000" id="svg_57">
   <g id="svg_58" transform="translate(2998.73 1526.02)">
    <g id="svg_59">
     <path d="m63.14,-22.41l0,22.41l-173.25,0l0,-244.98l168,0l0,22.39l-142.09,0l0,87.15l126.68,0l0,22.05l-126.68,0l0,90.98l147.34,0zm0,0" id="svg_60"/>
    </g>
   </g>
  </g>
  <g fill="#000000" id="svg_61">
   <g id="svg_62" transform="translate(3306.36 1526.02)">
    <g id="svg_63">
     <path d="m-83.86,2.09c-14,0 -26.95,-3.03 -38.84,-9.09c-11.9,-6.06 -21.58,-14.7 -29.05,-25.91l15.41,-17.48c13.53,20.06 31.14,30.09 52.84,30.09c30.33,0 45.5,-17.97 45.5,-53.9l0,-148.39l-89.59,0l0,-22.39l115.14,0l0,169.73c0,25.67 -6.01,44.98 -18.03,57.92c-12.02,12.95 -29.81,19.42 -53.38,19.42zm0,0" id="svg_64"/>
    </g>
   </g>
  </g>
  <g fill="#000000" id="svg_65">
   <g id="svg_66" transform="translate(3555.2 1526.02)">
    <g id="svg_67">
     <path d="m-110.11,-244.98l25.91,0l0,244.98l-25.91,0l0,-244.98zm38.16,-63.36l33.25,0l-56.71,43.4l-24.5,0l47.96,-43.4zm0,0" id="svg_68"/>
    </g>
   </g>
  </g>
  <g fill="#000000" id="svg_69">
   <g id="svg_70" transform="translate(3734.4 1526.02)">
    <g id="svg_71">
     <path d="m43.55,-65.45l-136.5,0l-29.39,65.45l-26.96,0l111.99,-244.98l25.56,0l111.98,244.98l-27.29,0l-29.39,-65.45zm-9.46,-21l-58.79,-131.6l-58.8,131.6l117.59,0zm0,0" id="svg_72"/>
    </g>
   </g>
  </g>
 </g>
</svg>